<svg width="40" height="41" viewBox="0 0 40 41" fill="none" xmlns="http://www.w3.org/2000/svg">
<path d="M21.9906 40.9839C21.9778 40.9725 21.5495 40.9491 21.0388 40.9319C20.528 40.9147 19.9274 40.9001 19.7039 40.8995C19.4805 40.8989 18.9214 40.9123 18.4614 40.9294C18.0014 40.9465 17.539 40.9439 17.4338 40.9235C17.2822 40.8942 17.3612 40.8848 17.8162 40.8783C18.1316 40.8737 18.3619 40.86 18.3279 40.8479C18.2805 40.8309 18.2791 40.8119 18.3218 40.766C18.3524 40.7331 18.4071 40.7062 18.4433 40.7062C18.4795 40.7062 18.5092 40.7238 18.5092 40.7453C18.5092 40.7668 18.4823 40.7947 18.4494 40.8073C18.4166 40.82 18.508 40.819 18.6525 40.8051C18.7971 40.7913 18.9243 40.7729 18.9353 40.7644C18.9462 40.7558 18.9086 40.7488 18.8517 40.7488C18.7947 40.7488 18.7481 40.7297 18.7481 40.7062C18.7481 40.6828 18.6713 40.6636 18.5774 40.6636C18.4805 40.6636 18.3721 40.6324 18.3265 40.5914C18.2514 40.5238 18.2516 40.521 18.3295 40.5473C18.4081 40.5738 18.4127 40.4335 18.4116 38.062C18.411 36.6796 18.3982 35.5198 18.383 35.4847C18.3653 35.4434 18.2855 35.4191 18.1576 35.4159L17.9596 35.411L18.1507 35.3777C18.2702 35.357 18.3652 35.3614 18.404 35.3896C18.449 35.4223 18.4863 35.4169 18.5389 35.3699C18.604 35.3119 18.5774 35.3064 18.2856 35.3174C18.1063 35.3242 17.5961 35.3505 17.1518 35.3759C16.7076 35.4013 16.333 35.4122 16.3195 35.4001C16.3059 35.388 16.3826 35.3782 16.49 35.3782C16.5973 35.3782 16.6923 35.3595 16.701 35.3366C16.7098 35.3138 16.8783 35.2898 17.0754 35.2834C17.2726 35.2769 17.4492 35.2524 17.4679 35.229C17.4867 35.2055 17.6802 35.1751 17.898 35.1614C18.1159 35.1477 19.0038 35.1432 19.8712 35.1515C20.7386 35.1598 21.5384 35.1715 21.6484 35.1775C21.8061 35.1862 21.8378 35.177 21.7979 35.1342C21.7582 35.0915 21.2651 35.0798 19.5069 35.0798C17.7401 35.0798 17.2691 35.0911 17.2785 35.1331C17.2871 35.1713 17.1833 35.1899 16.9109 35.199C16.5901 35.2096 16.4607 35.1908 16.0746 35.0775C15.8233 35.0038 15.5471 34.9166 15.4608 34.8838C15.3745 34.8509 15.2724 34.8241 15.2338 34.8241C15.1953 34.8241 15.1638 34.8049 15.1638 34.7814C15.1638 34.758 15.1888 34.7388 15.2195 34.7388C15.2502 34.7388 15.2615 34.7265 15.2446 34.7114C15.2277 34.6964 15.1838 34.7063 15.1471 34.7335C15.095 34.772 15.0265 34.7581 14.8363 34.67C14.7021 34.608 14.6058 34.5377 14.6223 34.5139C14.6414 34.4863 14.6064 34.4809 14.5257 34.499C14.4508 34.5157 14.3991 34.5095 14.3991 34.4839C14.3991 34.46 14.3681 34.4404 14.3301 34.4404C14.2922 34.4404 14.1847 34.4002 14.0912 34.351C13.9977 34.3018 13.9212 34.2426 13.9212 34.2196C13.9212 34.1965 13.8943 34.1861 13.8614 34.1965C13.8286 34.207 13.72 34.1789 13.6202 34.1342C13.5203 34.0895 13.4275 34.0272 13.414 33.9957C13.4004 33.9643 13.3316 33.9276 13.261 33.9144C13.1904 33.9011 13.0701 33.8414 12.9938 33.7817C12.9174 33.722 12.8355 33.6732 12.8117 33.6732C12.788 33.6732 12.7822 33.6535 12.7988 33.6295C12.8155 33.6055 12.8113 33.5886 12.7897 33.5919C12.768 33.5953 12.7234 33.5958 12.6905 33.593C12.6577 33.5903 12.6308 33.5633 12.6308 33.5331C12.6308 33.503 12.587 33.4753 12.5336 33.4717C12.4801 33.4682 12.3672 33.4137 12.2826 33.3508C12.1981 33.2879 12.1029 33.1957 12.0709 33.1458C12.039 33.096 12.0121 33.07 12.0112 33.0881C12.0103 33.1063 11.9566 33.0902 11.8919 33.0524C11.8272 33.0146 11.7611 32.9467 11.7451 32.9016C11.729 32.8564 11.6968 32.83 11.6735 32.8429C11.6501 32.8558 11.5398 32.7937 11.4283 32.705C11.3168 32.6163 11.1815 32.5053 11.1277 32.4585C11.0738 32.4116 11.0357 32.3574 11.0429 32.3381C11.0501 32.3187 11.0364 32.3138 11.0123 32.3271C10.9882 32.3403 10.9292 32.2986 10.881 32.2343C10.8329 32.17 10.7983 32.1031 10.8041 32.0855C10.8099 32.0679 10.7986 32.0558 10.7789 32.0586C10.7592 32.0613 10.7183 32.0613 10.688 32.0586C10.6577 32.0558 10.6104 31.996 10.5829 31.9257C10.5554 31.8553 10.5047 31.7978 10.4703 31.7978C10.4358 31.7978 10.3794 31.7576 10.345 31.7084C10.3106 31.6592 10.2945 31.6082 10.3093 31.595C10.3241 31.5818 10.2901 31.5501 10.2337 31.5245C10.1773 31.499 10.0837 31.411 10.0258 31.3289L9.92044 31.1797L10.0393 31.1732C10.1047 31.1697 10.1715 31.1481 10.1877 31.1253C10.204 31.1025 10.2926 31.0697 10.3846 31.0523C10.4766 31.0349 10.5746 31.0045 10.6023 30.9846C10.6301 30.9648 10.7484 30.943 10.8652 30.9363C10.982 30.9295 11.0991 30.901 11.1254 30.8729C11.1541 30.8422 11.3348 30.818 11.5794 30.8122C11.8732 30.8052 12.0253 30.8211 12.1291 30.8696C12.208 30.9064 12.3102 30.9737 12.3563 31.019C12.4251 31.0869 12.4885 31.0985 12.7146 31.0847C12.8656 31.0754 13.1355 31.0398 13.3143 31.0056C13.4931 30.9713 13.746 30.9071 13.8763 30.863L14.1132 30.7827L14.4292 30.8849C14.6029 30.9411 14.9245 31.0171 15.1437 31.0537C15.5091 31.1148 15.5813 31.1144 16.0102 31.0495C16.2675 31.0105 16.6127 30.9306 16.7773 30.8719C16.9796 30.7999 17.0958 30.7787 17.1358 30.8065C17.1683 30.8292 17.3992 30.8972 17.6489 30.9575C17.8986 31.0178 18.2008 31.0787 18.3205 31.0928C18.4557 31.1088 18.7179 31.0872 19.0134 31.0357C19.2749 30.9901 19.5939 30.9124 19.7223 30.8629C19.9547 30.7733 19.9567 30.7733 20.2002 30.8545C20.3347 30.8994 20.5953 30.9699 20.7793 31.0113C20.9633 31.0527 21.2643 31.0867 21.4483 31.0868C21.6323 31.087 21.9012 31.0631 22.0457 31.0338C22.1903 31.0045 22.4531 30.9328 22.6298 30.8744C22.8196 30.8117 22.976 30.7826 23.0122 30.8032C23.0458 30.8224 23.1485 30.8622 23.2405 30.8918C23.3325 30.9214 23.5476 30.9764 23.7184 31.014C23.8893 31.0517 24.1904 31.0817 24.3875 31.0807C24.5847 31.0798 24.8896 31.0488 25.0652 31.0119C25.2408 30.975 25.486 30.906 25.6101 30.8586L25.8358 30.7723L26.1511 30.8779C26.3245 30.936 26.603 31.008 26.77 31.0378C27.037 31.0855 27.0802 31.0839 27.1286 31.0249C27.1589 30.988 27.2711 30.918 27.378 30.8693C27.5215 30.8041 27.6246 30.7871 27.7714 30.8047C27.8809 30.8178 27.9939 30.8536 28.0225 30.8844C28.0511 30.9151 28.105 30.9298 28.1424 30.917C28.1797 30.9042 28.1984 30.8766 28.1838 30.8556C28.1693 30.8346 28.2071 30.8181 28.2678 30.8189C28.3284 30.8197 28.4319 30.8479 28.4976 30.8814C28.5633 30.9149 28.687 30.943 28.7724 30.9438C28.8578 30.9445 28.9277 30.9624 28.9277 30.9832C28.9277 31.004 29.0084 31.0344 29.1069 31.0507C29.2055 31.067 29.323 31.1099 29.368 31.1459C29.413 31.1819 29.4829 31.2001 29.5233 31.1862C29.5637 31.1724 29.5968 31.1683 29.5968 31.177C29.5968 31.1858 29.5184 31.2763 29.4225 31.3782C29.3266 31.48 29.2306 31.5588 29.2091 31.5532C29.1877 31.5476 29.1824 31.5716 29.1974 31.6065C29.2146 31.6464 29.1964 31.6699 29.1479 31.6699C29.1057 31.6699 29.0711 31.689 29.0711 31.7122C29.0711 31.7355 29.0248 31.802 28.9683 31.8599C28.9118 31.9179 28.8473 31.9553 28.8249 31.943C28.8026 31.9307 28.7843 31.9472 28.7843 31.9797C28.7843 32.0121 28.7344 32.0806 28.6733 32.1317C28.6122 32.1829 28.5442 32.2103 28.5222 32.1925C28.5003 32.1747 28.4959 32.1814 28.5125 32.2074C28.5292 32.2335 28.4645 32.3246 28.3688 32.4099C28.2732 32.4952 28.1555 32.565 28.1073 32.565C28.0591 32.565 28.0197 32.5938 28.0197 32.629C28.0197 32.6641 27.9946 32.6929 27.9639 32.6929C27.9333 32.6929 27.9208 32.7041 27.9361 32.7179C27.9515 32.7316 27.919 32.7892 27.8638 32.8457C27.8086 32.9024 27.7243 32.9487 27.6765 32.9487C27.6287 32.9487 27.5896 32.9774 27.5896 33.0126C27.5896 33.0478 27.5711 33.0765 27.5484 33.0765C27.5258 33.0765 27.4262 33.1448 27.3271 33.2281C27.228 33.3115 27.1185 33.37 27.0839 33.3582C27.0439 33.3445 27.0306 33.3591 27.0475 33.3984C27.0632 33.4349 27.0456 33.4602 27.0047 33.4602C26.9665 33.4602 26.8965 33.4983 26.8492 33.545C26.8018 33.5917 26.6641 33.6812 26.5431 33.7438C26.4221 33.8064 26.3123 33.8693 26.2992 33.8836C26.286 33.8978 26.2215 33.934 26.1558 33.9639C26.0901 33.9939 25.9718 34.0492 25.893 34.0869C25.8141 34.1245 25.7388 34.1672 25.7257 34.1817C25.7125 34.1963 25.4912 34.3005 25.2338 34.4134C24.9763 34.5263 24.7355 34.6084 24.6985 34.5957C24.6565 34.5813 24.6404 34.5938 24.6556 34.6291C24.6701 34.6627 24.6355 34.6947 24.5695 34.7086C24.5088 34.7214 24.3624 34.7624 24.2441 34.7996C24.1259 34.8369 23.9961 34.884 23.9558 34.9043C23.9155 34.9246 23.8087 34.9556 23.7184 34.9733C23.6282 34.991 23.5213 35.0208 23.4811 35.0396C23.4408 35.0584 23.2962 35.1039 23.1599 35.1407C23.0087 35.1816 22.7335 35.2078 22.4549 35.2078C22.1386 35.2078 21.9979 35.1924 21.9979 35.158C21.9979 35.1307 21.9867 35.1183 21.9729 35.1306C21.9592 35.1429 21.9616 35.1848 21.9784 35.2238C22.0028 35.2806 22.0671 35.293 22.3021 35.2862C22.4634 35.2816 22.7351 35.3079 22.906 35.3448L23.2166 35.4119L22.5953 35.3936C22.2536 35.3836 21.8235 35.3555 21.6395 35.3313C21.4198 35.3024 21.2394 35.3014 21.1138 35.3285C20.9239 35.3694 20.9247 35.3698 21.2333 35.3803C21.4041 35.3862 21.4844 35.399 21.4117 35.4088C21.339 35.4187 21.2207 35.454 21.1488 35.4874C21.0584 35.5295 21.044 35.5483 21.1019 35.5485C21.1479 35.5486 21.1855 35.5679 21.1855 35.5914C21.1855 35.6148 21.1528 35.634 21.1129 35.634C21.049 35.634 21.0407 35.8638 21.0431 37.5507C21.0455 39.2135 21.0555 39.4761 21.1191 39.5327C21.1594 39.5687 21.1693 39.5981 21.1411 39.5981C21.1075 39.5981 21.0927 39.7482 21.0979 40.035C21.1052 40.428 21.1092 40.4462 21.1377 40.2161C21.1552 40.0754 21.1741 39.9795 21.1799 40.003C21.1856 40.0264 21.1956 40.1383 21.2019 40.2515C21.2128 40.4442 21.2042 40.4612 21.0681 40.5145L20.9226 40.5715L21.0541 40.5749C21.1264 40.5769 21.1855 40.5592 21.1855 40.5358C21.1855 40.5123 21.25 40.4932 21.3289 40.4932C21.4077 40.4932 21.4722 40.5144 21.4722 40.5403C21.4722 40.5663 21.4406 40.5767 21.4019 40.5635C21.3633 40.5502 21.3035 40.5644 21.2691 40.5952C21.2347 40.6259 21.0938 40.6607 20.956 40.6725C20.8182 40.6843 20.6916 40.7063 20.6747 40.7214C20.6577 40.7365 20.6577 40.7612 20.6746 40.7763C20.6915 40.7914 20.7352 40.7816 20.7717 40.7545C20.8189 40.7196 20.9328 40.7163 21.1671 40.7431C21.3481 40.7638 21.4442 40.7832 21.3807 40.7861C21.3171 40.7891 21.2808 40.8055 21.2999 40.8226C21.3191 40.8396 21.5431 40.8671 21.7978 40.8836C22.0524 40.9001 22.3576 40.9317 22.4759 40.9538C22.6903 40.9939 22.69 40.994 22.3524 40.9993C22.1662 41.0023 22.0034 40.9953 21.9906 40.9839ZM24.6491 32.9505C24.6646 32.928 24.7143 32.9203 24.7594 32.9332C24.8209 32.9508 24.8256 32.9465 24.7781 32.9161C24.7299 32.8853 24.7562 32.8538 24.8884 32.7842C24.9839 32.734 25.0791 32.6929 25.0999 32.6929C25.1208 32.6929 25.2306 32.6329 25.344 32.5597C25.4574 32.4864 25.6027 32.4265 25.6669 32.4265C25.7332 32.4265 25.7598 32.4133 25.7285 32.3961C25.6888 32.3741 25.6934 32.3508 25.745 32.3126C25.7844 32.2834 25.8661 32.2706 25.9265 32.284C25.9869 32.2975 26.0094 32.2974 25.9766 32.284C25.9437 32.2705 25.9168 32.2397 25.9168 32.2155C25.9168 32.1912 25.9598 32.1814 26.0124 32.1937C26.0649 32.206 26.122 32.1956 26.1392 32.1708C26.1577 32.1442 26.1479 32.1381 26.1154 32.156C26.0851 32.1727 26.0602 32.1661 26.0602 32.1413C26.0602 32.1164 26.0979 32.0961 26.1439 32.0961C26.1899 32.096 26.323 32.0204 26.4396 31.928C26.5563 31.8357 26.6726 31.7715 26.6979 31.7855C26.7233 31.7995 26.7303 31.791 26.7134 31.7667C26.6965 31.7423 26.7445 31.6996 26.8199 31.6717C26.8953 31.6439 27.0026 31.5744 27.0583 31.5173C27.1139 31.4602 27.1594 31.4031 27.1594 31.3905C27.1594 31.3778 27.2163 31.3204 27.2859 31.2629C27.3554 31.2054 27.4438 31.1584 27.4822 31.1584C27.5256 31.1584 27.5412 31.1334 27.5235 31.0922C27.5072 31.0543 27.5152 31.0372 27.5423 31.0521C27.5683 31.0665 27.5896 31.0483 27.5896 31.0117C27.5896 30.9752 27.6218 30.9453 27.6612 30.9453C27.7007 30.9453 27.7329 30.9261 27.7329 30.9027C27.7329 30.8792 27.7214 30.86 27.7074 30.86C27.6933 30.86 27.6234 30.8932 27.552 30.9336C27.4807 30.9741 27.407 31.0268 27.3883 31.0507C27.3695 31.0747 27.2959 31.1566 27.2246 31.2329C27.1533 31.3091 27.0689 31.3715 27.037 31.3715C27.005 31.3715 26.9819 31.4051 26.9855 31.4461C26.9894 31.4898 26.9643 31.5154 26.9249 31.5078C26.8878 31.5007 26.7695 31.5683 26.662 31.658C26.5544 31.7476 26.4102 31.8646 26.3415 31.9179L26.2166 32.0149L26.037 31.9203C25.8595 31.827 25.8548 31.8267 25.6362 31.9024C25.5146 31.9446 25.2753 32.0165 25.1044 32.0623C24.8919 32.1192 24.6481 32.146 24.3325 32.1469C24.0308 32.1479 23.7828 32.1237 23.6156 32.0771C23.475 32.0379 23.2592 31.9658 23.136 31.917L22.912 31.8283L22.6581 31.9163C22.5184 31.9647 22.2859 32.0378 22.1413 32.0786C21.9605 32.1297 21.7292 32.152 21.4006 32.1503C21.0572 32.1484 20.8419 32.1238 20.6359 32.0628C20.4782 32.0161 20.2722 31.9449 20.1781 31.9047C20.0098 31.8327 19.9999 31.8337 19.5616 31.968C19.3165 32.043 18.9751 32.1222 18.8029 32.1439C18.6046 32.169 18.3661 32.1681 18.1529 32.1414C17.9677 32.1183 17.6979 32.0625 17.5533 32.0174C17.4088 31.9722 17.226 31.9116 17.1471 31.8826C17.0235 31.8371 16.974 31.842 16.7887 31.9181C16.6704 31.9667 16.4338 32.0384 16.263 32.0775C16.0886 32.1174 15.7636 32.1491 15.5222 32.1497C15.2473 32.1503 14.9886 32.1236 14.8053 32.0755C14.6476 32.034 14.4352 31.9625 14.3334 31.9166C14.2315 31.8708 14.1133 31.8425 14.0705 31.8538C14.0278 31.8652 13.8496 31.922 13.6744 31.9802L13.356 32.0858L13.0603 31.8672C12.8976 31.747 12.5597 31.4704 12.3092 31.2526C12.0588 31.0349 11.8405 30.8697 11.8242 30.8855C11.8078 30.9014 11.8213 30.9229 11.8542 30.9333C11.8871 30.9438 11.9139 30.9795 11.9139 31.0128C11.9139 31.046 11.9475 31.0731 11.9884 31.0731C12.0294 31.0731 12.0497 31.0923 12.0334 31.1158C12.0172 31.1392 12.0247 31.1584 12.0501 31.1584C12.0756 31.1584 12.3256 31.3589 12.6058 31.604C12.886 31.8491 13.1568 32.0613 13.2075 32.0757C13.2583 32.0901 13.2999 32.1192 13.2999 32.1403C13.2999 32.1614 13.3322 32.1677 13.3716 32.1542C13.411 32.1407 13.4433 32.1509 13.4433 32.1768C13.4433 32.2028 13.4784 32.224 13.5214 32.224C13.5644 32.224 13.6494 32.2719 13.7103 32.3306C13.7712 32.3892 13.8531 32.4371 13.8922 32.4371C13.9313 32.4371 13.9746 32.4534 13.9883 32.4732C14.0021 32.4931 14.1753 32.5938 14.3733 32.697C14.5712 32.8002 14.7336 32.9039 14.7341 32.9273C14.7347 32.9507 14.7547 32.9423 14.7786 32.9086C14.8151 32.8572 14.862 32.8555 15.0683 32.8979C15.2037 32.9258 15.4257 32.9486 15.5617 32.9486C15.6977 32.9486 15.9574 32.9209 16.1389 32.8871C16.3203 32.8532 16.6019 32.7836 16.7646 32.7323L17.0606 32.6392L17.3282 32.7285C17.4754 32.7776 17.7382 32.8472 17.9121 32.8832C18.086 32.9192 18.3614 32.9485 18.5241 32.9483C18.6867 32.9482 18.9944 32.9107 19.2078 32.8651C19.4212 32.8194 19.6745 32.7486 19.7706 32.7078C19.9417 32.635 19.9537 32.6358 20.3384 32.7466C20.5546 32.8089 20.8175 32.8797 20.9226 32.904C21.0278 32.9283 21.2536 32.948 21.4244 32.9478C21.5953 32.9476 21.8749 32.9187 22.0457 32.8836C22.2166 32.8485 22.4806 32.7792 22.6324 32.7295L22.9084 32.6391L23.2776 32.7483C23.4806 32.8084 23.765 32.8782 23.9096 32.9036C24.0542 32.9289 24.2585 32.9558 24.3636 32.9633C24.4688 32.9708 24.5697 32.9801 24.5878 32.9841C24.606 32.988 24.6335 32.9729 24.6491 32.9505ZM5.44661 39.0931C5.32369 38.9327 5.22311 38.7828 5.22311 38.7601C5.22311 38.7374 5.15645 38.6625 5.07497 38.5936C4.93514 38.4755 4.92838 38.4553 4.9546 38.234C4.96988 38.1051 5.04804 37.8569 5.12831 37.6825C5.20858 37.5081 5.29482 37.3432 5.31996 37.3162C5.34509 37.2892 5.35509 37.2545 5.34218 37.2391C5.32927 37.2236 5.33248 37.2201 5.34931 37.2312C5.36615 37.2424 5.444 37.1608 5.52231 37.0501C5.60061 36.9393 5.68361 36.8423 5.70675 36.8345C5.72989 36.8267 5.74882 36.8031 5.74882 36.782C5.74882 36.761 5.88901 36.6187 6.06035 36.4659C6.23169 36.3131 6.39426 36.1881 6.42161 36.1881C6.44896 36.1881 6.46005 36.1718 6.44625 36.1519C6.43245 36.1319 6.4742 36.0903 6.53901 36.0594C6.60383 36.0285 6.65686 35.9903 6.65686 35.9746C6.65686 35.9589 6.58696 35.888 6.50154 35.817C6.41611 35.7461 6.21649 35.556 6.05795 35.3946C5.8994 35.2332 5.68434 35.0052 5.58003 34.888C5.47572 34.7708 5.37917 34.6653 5.36545 34.6536C5.35174 34.6419 5.23283 34.5076 5.10121 34.3552C4.96959 34.2028 4.76987 33.9568 4.65738 33.8086C4.54489 33.6603 4.46083 33.5177 4.47058 33.4916C4.48034 33.4655 4.64827 33.3529 4.84377 33.2415C5.03926 33.1301 5.44654 32.9108 5.74882 32.7542C6.0511 32.5977 6.43821 32.4022 6.60907 32.3199C6.77992 32.2375 7.04337 32.1137 7.19451 32.0446C7.34565 31.9755 7.46931 31.9006 7.46931 31.8781C7.46931 31.8557 7.38905 31.886 7.29095 31.9454C7.19285 32.0048 7.07381 32.0535 7.02641 32.0535C6.97902 32.0535 6.88724 32.0845 6.82245 32.1223C6.75766 32.1602 6.70465 32.1721 6.70465 32.1488C6.70465 32.1255 6.76846 32.0829 6.84644 32.0541C6.92442 32.0253 7.01444 31.9735 7.04648 31.9391C7.09282 31.8893 7.0907 31.8685 7.03611 31.8376C6.99837 31.8162 6.94062 31.8074 6.90776 31.8182C6.8749 31.8289 6.84802 31.8095 6.84802 31.7751C6.84802 31.7407 6.86491 31.7125 6.88557 31.7125C6.90622 31.7125 6.92312 31.675 6.92312 31.6293C6.92312 31.5835 6.91358 31.5546 6.90192 31.565C6.89025 31.5754 6.85209 31.5627 6.8171 31.5368C6.78211 31.5109 6.76813 31.4679 6.78603 31.4413C6.80408 31.4144 6.78421 31.4176 6.74148 31.4485C6.67393 31.4973 6.66783 31.4921 6.69227 31.4059C6.7076 31.3518 6.73998 31.2958 6.7642 31.2815C6.78842 31.2672 6.77419 31.2438 6.73255 31.2296C6.69092 31.2153 6.65685 31.2223 6.65685 31.245C6.65685 31.2677 6.63535 31.2863 6.60906 31.2863C6.58278 31.2863 6.56127 31.2575 6.56127 31.2223C6.56127 31.1872 6.58278 31.1584 6.60906 31.1584C6.63535 31.1584 6.65685 31.1296 6.65685 31.0944C6.65685 31.0593 6.63667 31.0305 6.61201 31.0305C6.58735 31.0305 6.57122 30.9778 6.57617 30.9133C6.58323 30.8213 6.56212 30.7932 6.47764 30.7825C6.39982 30.7726 6.37011 30.7402 6.37011 30.6652C6.37011 30.6016 6.34248 30.5616 6.29842 30.5616C6.25899 30.5616 6.22673 30.5329 6.22673 30.4977C6.22673 30.4625 6.24756 30.4338 6.27302 30.4338C6.29848 30.4338 6.30694 30.405 6.29182 30.3699C6.27004 30.3193 6.24438 30.3286 6.16839 30.4147C6.11563 30.4746 6.06109 30.5134 6.0472 30.501C6.03331 30.4886 6.04469 30.454 6.07248 30.4241C6.10028 30.3943 6.12626 30.354 6.13022 30.3346C6.13418 30.3153 6.08942 30.2623 6.03075 30.2169C5.97207 30.1715 5.91836 30.0867 5.91139 30.0283C5.90442 29.97 5.91876 29.9223 5.94324 29.9223C5.96773 29.9223 5.98777 29.885 5.98777 29.8395C5.98777 29.794 5.96627 29.745 5.93998 29.7305C5.91359 29.7159 5.89219 29.7466 5.89219 29.799C5.89219 29.8512 5.87606 29.8795 5.85635 29.8619C5.83663 29.8444 5.81875 29.7692 5.81662 29.695C5.81355 29.588 5.79369 29.5619 5.72104 29.5694C5.6706 29.5746 5.65622 29.5681 5.68907 29.5552C5.72193 29.5422 5.74881 29.5136 5.74881 29.4917C5.74881 29.4697 5.69505 29.4638 5.62934 29.4785C5.55572 29.495 5.50986 29.4871 5.50986 29.458C5.50986 29.432 5.569 29.4092 5.64128 29.4073L5.77271 29.4039L5.63794 29.3507C5.56381 29.3214 5.50467 29.2846 5.50651 29.2689C5.50836 29.2532 5.50836 29.2259 5.5065 29.2083C5.50465 29.1907 5.48281 29.2147 5.45797 29.2616C5.41981 29.3336 5.41659 29.3293 5.43723 29.2336C5.45067 29.1713 5.4748 29.0898 5.49087 29.0524C5.5114 29.0047 5.49249 28.9845 5.42746 28.9845C5.37652 28.9845 5.31118 28.9414 5.28225 28.8886C5.25333 28.8359 5.21645 28.7036 5.20031 28.5947C5.17717 28.4386 5.14865 28.3913 5.06561 28.3709C4.97748 28.3494 4.97198 28.3383 5.03194 28.3032C5.09331 28.2673 5.09159 28.2611 5.02 28.2606C4.974 28.2602 4.93637 28.2423 4.93637 28.2208C4.93637 28.1994 4.96325 28.1721 4.99611 28.1603C5.03056 28.1479 5.01899 28.1374 4.9688 28.1354C4.92092 28.1336 4.85122 28.1048 4.8139 28.0715C4.76155 28.0248 4.7596 28.0054 4.80536 27.9863C4.85245 27.9666 4.85236 27.9564 4.80501 27.9367C4.77215 27.923 4.74527 27.8835 4.74527 27.8489C4.74527 27.8117 4.72239 27.7986 4.68935 27.8168C4.65123 27.8378 4.64363 27.824 4.66546 27.7732C4.68307 27.7323 4.69748 27.6885 4.69748 27.6758C4.69748 27.6631 4.72973 27.6765 4.76916 27.7058C4.81437 27.7393 4.84085 27.7421 4.84085 27.7135C4.84085 27.6886 4.81934 27.6563 4.79306 27.6419C4.76677 27.6274 4.74527 27.6016 4.74527 27.5846C4.74527 27.5676 4.80967 27.5197 4.88838 27.4783C4.96709 27.4368 5.15527 27.3741 5.30655 27.339C5.45784 27.3039 5.60205 27.257 5.62702 27.2347C5.65199 27.2125 5.69063 27.1943 5.71288 27.1943C5.73514 27.1943 5.71471 27.2404 5.66748 27.2967C5.59947 27.3778 5.56734 27.3889 5.51293 27.35C5.4569 27.3099 5.4503 27.3153 5.47709 27.3789C5.49515 27.4219 5.50993 27.465 5.50993 27.4748C5.50993 27.4847 5.5404 27.4927 5.57763 27.4927C5.61487 27.4927 5.65385 27.4699 5.66426 27.442C5.6766 27.409 5.71535 27.4214 5.77577 27.4776C5.8267 27.5249 5.87651 27.5909 5.88645 27.6241C5.89641 27.6573 5.90971 27.7475 5.91602 27.8245C5.92234 27.9015 5.9396 27.9753 5.95438 27.9885C5.96916 28.0017 5.96968 28.0394 5.95546 28.0723C5.94132 28.1051 5.95355 28.132 5.98265 28.132C6.01175 28.132 6.03555 28.1682 6.03555 28.2123C6.03555 28.258 6.07878 28.3027 6.13595 28.316C6.19526 28.3298 6.22263 28.3592 6.20282 28.3878C6.18326 28.416 6.20844 28.4453 6.26331 28.4581C6.32104 28.4715 6.37821 28.5422 6.41149 28.6413C6.44129 28.73 6.46568 28.8448 6.46568 28.8964C6.46568 28.9703 6.48564 28.9846 6.55967 28.9637C6.63223 28.9431 6.6605 28.9613 6.68365 29.0436C6.70014 29.1022 6.6996 29.1704 6.68238 29.1952C6.6652 29.22 6.67144 29.2403 6.6962 29.2403C6.72097 29.2403 6.75221 29.2777 6.76563 29.3235C6.77905 29.3692 6.76545 29.4172 6.73536 29.43C6.69583 29.4469 6.69723 29.4603 6.74044 29.4782C6.7733 29.4919 6.80018 29.5303 6.80018 29.5635C6.80018 29.5967 6.8225 29.6239 6.84978 29.6239C6.87706 29.6239 6.89319 29.6766 6.88562 29.7411C6.87543 29.8279 6.89138 29.8555 6.94703 29.8475C6.98837 29.8416 7.07277 29.8848 7.13458 29.9434C7.19639 30.0021 7.22601 30.0501 7.2004 30.0501C7.17479 30.0501 7.12803 30.0271 7.09649 29.999C7.05188 29.9592 7.03914 29.9628 7.03914 30.0151C7.03914 30.0521 7.10147 30.1054 7.17765 30.1336C7.2919 30.1758 7.32174 30.2179 7.34798 30.3739C7.36659 30.4847 7.42806 30.6096 7.49621 30.6751C7.57296 30.749 7.61264 30.8375 7.61264 30.9347C7.61264 31.0405 7.63074 31.076 7.67671 31.0603C7.71195 31.0482 7.77047 31.0547 7.80675 31.0747C7.84303 31.0947 7.85918 31.1232 7.84264 31.1379C7.82609 31.1527 7.77412 31.1698 7.72714 31.1759C7.68015 31.1821 7.63338 31.2094 7.62319 31.2367C7.61264 31.2649 7.65276 31.2862 7.71651 31.2862C7.78326 31.2862 7.89033 31.3465 7.98206 31.4356L8.13577 31.585L8.3383 31.5227C8.4497 31.4885 8.55004 31.4687 8.56128 31.4787C8.57253 31.4888 8.52527 31.5161 8.45627 31.5395C8.38727 31.5629 8.24046 31.621 8.13002 31.6686C8.01958 31.7162 7.87412 31.7564 7.80677 31.7581C7.7145 31.7604 7.70427 31.7682 7.76528 31.7901C7.80981 31.806 7.9365 31.9341 8.04682 32.0748C8.15714 32.2154 8.3777 32.4744 8.53696 32.6502C8.69622 32.826 9.16095 33.2677 9.56969 33.6318C9.97843 33.9958 10.3774 34.3416 10.4562 34.4002C10.5351 34.4589 10.8147 34.6509 11.0775 34.8269C11.3404 35.003 11.7597 35.2637 12.0095 35.4064C12.2592 35.5491 12.5764 35.7182 12.7144 35.7822C12.8524 35.8462 12.9653 35.9118 12.9653 35.9278C12.9653 35.9439 12.8201 35.9907 12.6427 36.0317C12.4653 36.0727 12.1373 36.1556 11.9139 36.216C11.6904 36.2763 11.2818 36.3938 11.0058 36.4771C10.7298 36.5604 10.3965 36.6612 10.2651 36.701C10.1336 36.7409 9.66926 36.8998 9.23311 37.0543C8.79695 37.2087 8.24855 37.4139 8.01442 37.5104C7.78029 37.6068 7.1156 37.8956 6.53732 38.152C5.95905 38.4085 5.42677 38.6181 5.35448 38.6179C5.2822 38.6178 5.22306 38.629 5.22306 38.643C5.22306 38.657 5.25995 38.7241 5.30505 38.7922C5.35015 38.8603 5.40518 38.916 5.42735 38.916C5.44952 38.916 5.45679 38.9317 5.4435 38.9509C5.4302 38.97 5.4693 39.0338 5.53036 39.0925C5.59142 39.1512 5.65623 39.241 5.67439 39.2921C5.69255 39.3431 5.69901 39.3849 5.68874 39.3849C5.67846 39.3849 5.56954 39.2536 5.44661 39.0931ZM33.8502 38.5185C33.7057 38.4664 33.1465 38.2293 32.6077 37.9918C32.0688 37.7542 31.5311 37.522 31.4129 37.4758C31.2946 37.4296 30.8322 37.2638 30.3853 37.1073C29.9385 36.9508 29.4976 36.7958 29.4056 36.7629C29.3136 36.73 28.9803 36.6245 28.6649 36.5285C28.3494 36.4325 27.7903 36.2759 27.4223 36.1805C27.0543 36.0851 26.694 35.9976 26.6218 35.9861C26.5495 35.9747 26.4903 35.9476 26.4903 35.9261C26.4903 35.9046 26.528 35.8744 26.574 35.8591C26.62 35.8438 26.8404 35.7357 27.0638 35.6191C27.2873 35.5024 27.6421 35.3011 27.8524 35.1719C28.0627 35.0426 28.4169 34.8108 28.6396 34.6567C28.8623 34.5026 29.2488 34.2053 29.4987 33.9961C29.7485 33.7868 30.1238 33.4512 30.3328 33.2501C30.5417 33.0491 30.8666 32.712 31.0548 32.501C31.2429 32.2901 31.4566 32.0365 31.5297 31.9376C31.6613 31.7595 31.6638 31.7584 31.8005 31.8215C31.8765 31.8565 31.9386 31.8676 31.9386 31.8461C31.9386 31.8246 31.8794 31.7927 31.8071 31.7752C31.7349 31.7577 31.627 31.7377 31.5675 31.7308C31.508 31.7238 31.3413 31.67 31.1971 31.6111C31.0529 31.5523 30.9349 31.4967 30.9349 31.4878C30.9349 31.4788 31.0694 31.5003 31.2336 31.5355C31.3979 31.5708 31.5473 31.6197 31.5656 31.6442C31.5839 31.6687 31.6105 31.6783 31.6248 31.6655C31.6391 31.6528 31.608 31.6014 31.5557 31.5513C31.5034 31.5013 31.4607 31.4499 31.4607 31.4372C31.4607 31.4245 31.4882 31.4141 31.5219 31.4141C31.5555 31.4141 31.6129 31.3518 31.6493 31.2756C31.6857 31.1994 31.7202 31.1179 31.7259 31.0944C31.7317 31.071 31.7389 31.0256 31.7419 30.9936C31.7454 30.957 31.783 30.9436 31.843 30.9576C31.8956 30.9699 31.9386 30.9708 31.9386 30.9598C31.9386 30.9487 31.9163 30.9026 31.8891 30.8572C31.8612 30.8107 31.8588 30.7748 31.8835 30.7748C31.9077 30.7748 31.9394 30.7339 31.954 30.684C31.9731 30.619 32.0041 30.6012 32.0633 30.6215C32.1104 30.6376 32.1628 30.6262 32.1849 30.5951C32.2063 30.565 32.2242 30.5164 32.2246 30.4871C32.225 30.4578 32.1931 30.4338 32.1536 30.4338C32.1142 30.4338 32.0819 30.4657 32.0819 30.5048C32.0819 30.5439 32.0686 30.564 32.0523 30.5494C32.036 30.5349 32.0361 30.4754 32.0524 30.4173C32.0736 30.342 32.12 30.3077 32.2135 30.2981C32.3236 30.2868 32.3427 30.2665 32.3319 30.1723C32.3248 30.1106 32.344 30.0051 32.3744 29.9379L32.4299 29.8157L32.4623 29.9223C32.4872 30.004 32.5029 29.9667 32.5297 29.7624C32.5502 29.606 32.5883 29.494 32.6219 29.491C32.6535 29.4882 32.6954 29.4882 32.7152 29.491C32.7349 29.4938 32.751 29.4756 32.751 29.4505C32.751 29.423 32.7093 29.4168 32.6457 29.4348C32.5488 29.4623 32.5465 29.4592 32.6175 29.3959C32.66 29.358 32.7029 29.3051 32.7129 29.2783C32.7229 29.2516 32.7909 29.2296 32.8641 29.2296C32.959 29.2296 32.9824 29.2165 32.9458 29.1838C32.9175 29.1586 32.8944 29.1234 32.8944 29.1056C32.8944 29.0877 32.9414 29.034 32.999 28.9862C33.0899 28.9107 33.0927 28.8993 33.0201 28.8993C32.9741 28.8993 32.9501 28.8798 32.9666 28.856C32.9831 28.8321 33.0166 28.8237 33.0411 28.8372C33.0655 28.8507 33.088 28.8078 33.0911 28.742C33.0941 28.6761 33.1016 28.6031 33.1077 28.5796C33.1138 28.5562 33.1221 28.5034 33.1261 28.4624C33.1301 28.4214 33.1628 28.3878 33.1989 28.3878C33.2357 28.3878 33.2907 28.3039 33.3245 28.196C33.3644 28.0691 33.4109 28.0044 33.4622 28.0048C33.5296 28.0054 33.5304 28.0108 33.4679 28.0468C33.4285 28.0695 33.4177 28.0878 33.444 28.0874C33.4703 28.0871 33.5291 28.0615 33.5746 28.0306C33.6202 27.9998 33.6648 27.9317 33.6738 27.8793C33.6827 27.8269 33.7118 27.7712 33.7384 27.7556C33.765 27.7399 33.8118 27.6619 33.8424 27.5822C33.873 27.5025 33.898 27.4306 33.898 27.4224C33.898 27.4142 33.8604 27.4068 33.8144 27.4061C33.7395 27.4048 33.7407 27.398 33.8256 27.3408C33.9194 27.2776 33.9193 27.2765 33.8137 27.2519C33.755 27.2382 33.7069 27.2143 33.7069 27.1987C33.7069 27.1831 33.5673 27.1148 33.3967 27.0469C33.2261 26.9791 33.094 26.9169 33.1032 26.9087C33.1124 26.9005 33.2215 26.9327 33.3456 26.9801C33.4698 27.0276 33.6114 27.0665 33.6603 27.0665C33.7092 27.0665 33.7774 27.1019 33.8117 27.1452C33.8461 27.1885 33.9562 27.2479 34.0566 27.2773C34.1569 27.3067 34.2496 27.3212 34.2626 27.3096C34.2756 27.2981 34.1877 27.2551 34.0673 27.2141C33.8533 27.1412 33.8491 27.1361 33.8764 26.9858C33.8917 26.9012 33.9254 26.7361 33.9513 26.6189C33.9772 26.5017 34.0291 26.1372 34.0667 25.809C34.1043 25.4808 34.1355 24.942 34.1361 24.6117C34.1367 24.2814 34.1052 23.715 34.0663 23.3531C34.0274 22.9911 33.9616 22.5325 33.9201 22.3339C33.8785 22.1353 33.7904 21.7714 33.7242 21.5253C33.658 21.2791 33.5269 20.8667 33.4328 20.6089C33.3388 20.351 33.1564 19.9194 33.0276 19.6498C32.8988 19.3802 32.6765 18.9534 32.5336 18.7014C32.3907 18.4494 32.1571 18.075 32.0145 17.8694C31.872 17.6639 31.6 17.3042 31.4102 17.0702C31.2204 16.8362 30.8987 16.4722 30.6953 16.2612C30.4919 16.0502 30.0265 15.6186 29.6611 15.3021C29.2958 14.9856 28.7894 14.5876 28.5359 14.4176C28.2823 14.2476 28.0462 14.0987 28.0111 14.0867C27.9602 14.0692 27.9508 14.1354 27.965 14.4129C27.9747 14.6043 27.9574 14.9643 27.9265 15.2127C27.8957 15.4612 27.8201 15.885 27.7587 16.1546C27.6972 16.4242 27.655 16.6523 27.6647 16.6614C27.6745 16.6705 27.7046 16.6261 27.7316 16.5627C27.7586 16.4993 27.7807 16.4103 27.7807 16.365C27.7807 16.3196 27.7989 16.2825 27.821 16.2825C27.8432 16.2825 28.0744 16.4698 28.3348 16.6987C28.5952 16.9276 28.9279 17.2393 29.0742 17.3913C29.2204 17.5434 29.391 17.7493 29.4533 17.8489C29.5156 17.9486 29.5928 18.0301 29.6248 18.0301C29.6568 18.0301 29.7305 18.102 29.7887 18.1899C29.8469 18.2778 29.8949 18.3594 29.8954 18.3711C29.896 18.3828 29.932 18.4147 29.9756 18.4419C30.0191 18.4691 30.1158 18.5989 30.1904 18.7305C30.2651 18.862 30.3426 18.9787 30.3627 18.9898C30.3829 19.0009 30.445 19.0881 30.5008 19.1835C30.5566 19.279 30.5898 19.375 30.5746 19.3969C30.5594 19.4188 30.5805 19.4367 30.6215 19.4367C30.6625 19.4367 30.696 19.4555 30.696 19.4784C30.696 19.5014 30.7913 19.6951 30.9078 19.9088C31.0243 20.1226 31.108 20.3244 31.0938 20.3573C31.0797 20.3902 31.0867 20.4171 31.1094 20.4171C31.132 20.4171 31.1778 20.4719 31.2111 20.539C31.2444 20.606 31.2582 20.6922 31.2417 20.7304C31.2232 20.7734 31.2411 20.81 31.2886 20.8262C31.3309 20.8407 31.3999 20.9583 31.442 21.0875C31.4842 21.2168 31.5238 21.3442 31.5302 21.3706C31.5366 21.3971 31.5552 21.4475 31.5716 21.4827C31.5879 21.5178 31.6457 21.6934 31.6999 21.8729C31.7542 22.0524 31.8061 22.2634 31.8153 22.3418C31.8244 22.4202 31.8656 22.6378 31.9067 22.8253C31.9478 23.0129 31.9909 23.3006 32.0024 23.4647C32.0139 23.6288 32.0396 23.7986 32.0596 23.8421C32.0797 23.8856 32.0807 24.3264 32.062 24.8216C32.0433 25.3169 32.0122 25.7321 31.9929 25.7443C31.9735 25.7565 31.9535 25.8719 31.9484 26.0008C31.9434 26.1298 31.9267 26.2875 31.9115 26.3514C31.8859 26.4584 31.8669 26.4669 31.6722 26.4594C31.5559 26.4549 31.4607 26.4362 31.4607 26.4178C31.4607 26.3995 31.3693 26.3828 31.2576 26.3807C31.1459 26.3787 30.8717 26.3544 30.6482 26.3267C30.4248 26.2991 30.2474 26.2624 30.2539 26.2452C30.2605 26.228 30.2638 26.1996 30.2611 26.182C30.2585 26.1644 30.2375 26.198 30.2144 26.2566C30.1798 26.3443 30.1765 26.3361 30.1959 26.2105C30.2088 26.1266 30.2344 25.9156 30.2527 25.7417C30.271 25.5677 30.2863 25.0322 30.2867 24.5516C30.2874 23.9546 30.2625 23.5293 30.2087 23.2089C30.1653 22.9511 30.104 22.6058 30.0725 22.4417C30.041 22.2776 29.9981 22.1241 29.9771 22.1005C29.9562 22.0769 29.864 21.8563 29.7722 21.6103C29.6804 21.3643 29.5713 21.1054 29.5297 21.0351C29.4881 20.9648 29.4539 20.8652 29.4537 20.8138C29.4536 20.7625 29.4316 20.7084 29.405 20.6937C29.3783 20.679 29.3138 20.5924 29.2616 20.5011C29.2094 20.4099 29.1667 20.2961 29.1667 20.2483C29.1667 20.2004 29.1476 20.1613 29.1243 20.1613C29.1011 20.1613 29.0442 20.0894 28.998 20.0015C28.9518 19.9136 28.8843 19.8261 28.8482 19.807C28.812 19.788 28.7948 19.7544 28.8101 19.7324C28.8253 19.7104 28.8167 19.6924 28.791 19.6924C28.7652 19.6924 28.73 19.6347 28.7126 19.5642C28.6952 19.4937 28.6391 19.416 28.588 19.3916C28.5368 19.3672 28.5072 19.3295 28.5222 19.3078C28.5372 19.2862 28.5036 19.2344 28.4476 19.1927C28.3916 19.1511 28.2784 19.0307 28.1961 18.9252C28.1138 18.8197 28.0521 18.7334 28.059 18.7334C28.0658 18.7334 27.963 18.6288 27.8305 18.5009C27.698 18.373 27.5896 18.2435 27.5896 18.2132C27.5896 18.1828 27.5734 18.1628 27.5537 18.1686C27.534 18.1745 27.4695 18.1361 27.4104 18.0834C27.3512 18.0306 27.3028 17.9683 27.3028 17.9448C27.3028 17.9214 27.2718 17.9022 27.234 17.9022C27.1961 17.9022 27.152 17.8833 27.1359 17.8601C27.1191 17.8359 27.1383 17.8288 27.1809 17.8433C27.2217 17.8573 27.255 17.8486 27.255 17.824C27.255 17.7995 27.2355 17.7686 27.2117 17.7555C27.1879 17.7424 27.1793 17.6946 27.1926 17.6494C27.2058 17.6041 27.2448 17.5575 27.2791 17.5457C27.3135 17.534 27.3561 17.4655 27.3738 17.3936C27.3915 17.3217 27.4271 17.2629 27.4528 17.2629C27.4786 17.2629 27.4873 17.245 27.4722 17.2232C27.457 17.2014 27.4637 17.173 27.4871 17.1601C27.5104 17.1473 27.546 17.074 27.5662 16.9973C27.5864 16.9207 27.6056 16.8483 27.6089 16.8366C27.6123 16.8249 27.632 16.7913 27.6529 16.762C27.6737 16.7327 27.6726 16.7087 27.6503 16.7087C27.6279 16.7087 27.5266 16.8862 27.425 17.103C27.3235 17.3199 27.2114 17.5276 27.176 17.5646C27.1406 17.6016 27.1117 17.6464 27.1117 17.6642C27.1117 17.682 26.953 17.9106 26.759 18.1723C26.565 18.434 26.2841 18.7728 26.1346 18.9252C25.9851 19.0776 25.7298 19.3138 25.5673 19.4501C25.4047 19.5864 25.1104 19.8086 24.9133 19.9438C24.7161 20.0789 24.4507 20.2455 24.3235 20.314C24.1963 20.3824 24.0242 20.475 23.9412 20.5199C23.8581 20.5647 23.5644 20.6911 23.2884 20.8007C23.0124 20.9104 22.5715 21.06 22.3086 21.1332C22.0458 21.2064 21.5834 21.3095 21.2811 21.3622C20.8105 21.4443 20.5838 21.4577 19.704 21.4552C18.7974 21.4526 18.6062 21.4394 18.0791 21.3432C17.7505 21.2832 17.2546 21.1674 16.9771 21.0858C16.6996 21.0042 16.302 20.8653 16.0936 20.7771C15.8852 20.6889 15.5406 20.525 15.3279 20.4129C15.1151 20.3009 14.7707 20.096 14.5625 19.9578C14.3544 19.8195 14.022 19.5642 13.8239 19.3904C13.6257 19.2166 13.3478 18.9497 13.2063 18.7973C13.0648 18.645 12.8129 18.3328 12.6465 18.1036C12.4802 17.8745 12.3441 17.6683 12.3441 17.6454C12.3441 17.6226 12.3273 17.6038 12.3068 17.6038C12.2863 17.6038 12.2447 17.5511 12.2144 17.4866C12.184 17.4222 12.1063 17.2587 12.0415 17.1234C11.9768 16.9882 11.9072 16.8251 11.887 16.7611C11.8667 16.6972 11.8465 16.6352 11.8421 16.6235C11.8376 16.6118 11.8213 16.5734 11.8058 16.5382C11.7903 16.5031 11.7345 16.2921 11.6817 16.0694C11.629 15.8467 11.5602 15.4206 11.529 15.1227C11.4977 14.8247 11.4815 14.465 11.493 14.3234C11.5045 14.1819 11.5056 14.066 11.4955 14.066C11.4854 14.066 11.3765 14.1266 11.2535 14.2007C11.1305 14.2748 10.8363 14.4792 10.5997 14.6551C10.3631 14.8309 9.92573 15.1875 9.62769 15.4475C9.32965 15.7075 8.90871 16.112 8.69227 16.3464C8.47583 16.5809 8.17848 16.9189 8.03148 17.0977C7.88448 17.2765 7.65266 17.5815 7.51632 17.7755C7.37998 17.9696 7.12123 18.3795 6.94132 18.6866C6.7614 18.9937 6.51416 19.4655 6.3919 19.7351C6.26963 20.0047 6.10627 20.3979 6.02889 20.6089C5.9515 20.8199 5.82657 21.2135 5.75126 21.4836C5.67595 21.7538 5.5801 22.1517 5.53825 22.368C5.49641 22.5842 5.4299 23.0616 5.39046 23.4288C5.35102 23.796 5.31884 24.3091 5.31894 24.5691C5.31904 24.8291 5.35001 25.341 5.38773 25.7067C5.42546 26.0724 5.49155 26.5392 5.53461 26.7441C5.57766 26.949 5.60585 27.1219 5.59724 27.1283C5.58865 27.1348 5.44181 27.1982 5.27096 27.2693C5.1001 27.3404 4.85278 27.4402 4.72136 27.4911C4.58993 27.5419 4.28884 27.6715 4.05227 27.7791C3.81571 27.8867 3.45724 28.0657 3.25568 28.177C3.05412 28.2883 2.72636 28.4867 2.52732 28.618C2.32828 28.7493 2.14779 28.8567 2.12623 28.8567C2.10466 28.8567 2.0511 28.7464 2.0072 28.6116C1.9633 28.4768 1.88396 28.1764 1.83089 27.9441C1.77781 27.7118 1.73439 27.4766 1.73439 27.4214C1.73439 27.3662 1.7141 27.2877 1.68931 27.247C1.66451 27.2063 1.60784 26.8661 1.56336 26.491C1.51889 26.1159 1.47294 25.3871 1.46126 24.8713C1.44958 24.3555 1.46288 23.6746 1.49075 23.3581C1.51865 23.0417 1.56379 22.6388 1.59107 22.463C1.61835 22.2872 1.64765 22.0858 1.65619 22.0155C1.66474 21.9451 1.68323 21.8588 1.69728 21.8237C1.71134 21.7885 1.7701 21.5296 1.82786 21.2482C1.88562 20.9669 1.95008 20.7072 1.9711 20.6712C1.99212 20.6351 2.02539 20.5207 2.04503 20.4171C2.06467 20.3134 2.09774 20.199 2.1185 20.1629C2.13927 20.1269 2.20259 19.9439 2.25921 19.7564C2.31584 19.5688 2.37955 19.377 2.4008 19.3301C2.42205 19.2833 2.5425 19.0051 2.66847 18.7121C2.79444 18.419 2.97991 18.0214 3.08061 17.8285C3.18132 17.6356 3.26372 17.4486 3.26372 17.4129C3.26372 17.3773 3.28075 17.3481 3.30155 17.3481C3.32236 17.3481 3.3719 17.2858 3.41163 17.2096C3.45137 17.1334 3.56697 16.9368 3.66853 16.7727C3.77008 16.6086 3.93864 16.3496 4.04311 16.1972C4.14758 16.0449 4.25734 15.8818 4.28702 15.8349C4.3167 15.7881 4.40487 15.6634 4.48293 15.5579C4.561 15.4524 4.63745 15.3565 4.65281 15.3448C4.66816 15.333 4.77251 15.202 4.88468 15.0536C4.99685 14.9052 5.29804 14.5599 5.55399 14.2863C5.80994 14.0128 6.0714 13.7342 6.13502 13.6672C6.19863 13.6003 6.32629 13.4756 6.41869 13.3902C6.51109 13.3048 6.80142 13.0518 7.06387 12.8281C7.32632 12.6045 7.80311 12.2271 8.12341 11.9897C8.4437 11.7522 9.0096 11.372 9.38096 11.1448C9.75232 10.9176 10.157 10.684 10.2801 10.6256C10.4033 10.5672 10.5149 10.5071 10.528 10.4919C10.5412 10.4767 10.6639 10.4139 10.8008 10.3524C10.9378 10.2909 11.0363 10.2285 11.0199 10.2139C11.0035 10.1992 11.0351 10.1872 11.0901 10.1872C11.1452 10.1872 11.2215 10.1594 11.2596 10.1254C11.2977 10.0914 11.3853 10.0509 11.4542 10.0355C11.5231 10.0201 11.5794 9.9919 11.5794 9.97286C11.5794 9.95382 11.644 9.9256 11.7228 9.91016C11.8017 9.8947 11.8662 9.86441 11.8662 9.84283C11.8662 9.82125 11.9044 9.8036 11.9511 9.8036C11.9979 9.8036 12.0785 9.77891 12.1304 9.74874C12.1822 9.71858 12.3537 9.64945 12.5114 9.59512C12.6691 9.5408 12.8626 9.47261 12.9415 9.4436C13.0204 9.41459 13.2784 9.32812 13.515 9.25145C13.7516 9.17478 14.0043 9.09269 14.0765 9.06903C14.1488 9.04537 14.208 9.01034 14.208 8.99119C14.208 8.97203 14.3414 8.79844 14.5045 8.60543C14.6675 8.41243 14.9359 8.13792 15.1008 7.99542C15.2656 7.85291 15.4508 7.69795 15.5122 7.65107C15.5735 7.60418 15.7029 7.51787 15.7997 7.45926C15.8964 7.40065 15.9758 7.33831 15.9759 7.32073C15.9761 7.30315 15.9967 7.28876 16.0217 7.28876C16.0466 7.28876 16.1595 7.23363 16.2726 7.16625C16.3856 7.09886 16.5265 7.03044 16.5856 7.01419C16.6447 6.99794 16.6931 6.96828 16.6931 6.94828C16.6931 6.92828 16.7576 6.89928 16.8365 6.88383C16.9154 6.86838 16.9799 6.84022 16.9799 6.82125C16.9799 6.80228 17.0552 6.77416 17.1471 6.75877C17.2391 6.74338 17.3144 6.7157 17.3144 6.69727C17.3144 6.67884 17.4058 6.64283 17.5175 6.61724C17.6292 6.59166 17.8174 6.54843 17.9357 6.52118C18.054 6.49392 18.1938 6.45558 18.2464 6.43598C18.2989 6.41637 18.3742 6.39926 18.4136 6.39795C18.4531 6.39664 18.6036 6.38313 18.7482 6.36791C18.8927 6.35269 19.0373 6.32161 19.0693 6.29884C19.1033 6.2747 19.2317 6.27019 19.3771 6.28803L19.6266 6.31863L19.498 6.18237C19.4273 6.10743 19.3695 6.02928 19.3695 6.00869C19.3695 5.98811 19.2942 5.95868 19.2022 5.94328C19.1102 5.92789 19.0349 5.89977 19.0349 5.8808C19.0349 5.86183 18.9704 5.83367 18.8915 5.81822C18.8127 5.80278 18.7482 5.77377 18.7482 5.75377C18.7482 5.73377 18.7097 5.70653 18.6628 5.69324C18.6158 5.67995 18.4783 5.58558 18.3572 5.48354C18.2361 5.38151 18.081 5.21884 18.0125 5.12207C17.944 5.0253 17.8879 4.91697 17.8879 4.88133C17.8879 4.8457 17.87 4.81655 17.8481 4.81655C17.8262 4.81655 17.804 4.79257 17.7988 4.76327C17.7935 4.73397 17.7771 4.55484 17.7622 4.36521C17.7383 4.06152 17.7485 3.99549 17.8474 3.8111C17.9343 3.64892 17.9596 3.52973 17.9596 3.28207C17.9596 3.10625 17.9703 2.9528 17.9835 2.94108C17.9966 2.92936 18.0467 2.82386 18.0948 2.70665C18.146 2.58162 18.1931 2.31734 18.2086 2.06728C18.2231 1.83285 18.2512 1.62186 18.271 1.59841C18.2908 1.57497 18.3229 1.48866 18.3424 1.4066C18.3619 1.32455 18.3919 1.24783 18.409 1.23611C18.4261 1.22438 18.4777 1.13807 18.5236 1.0443C18.5695 0.950523 18.6229 0.788992 18.6424 0.685339C18.6619 0.581686 18.7004 0.490178 18.7279 0.481987C18.7555 0.473798 18.8304 0.558604 18.8945 0.670447C18.9984 0.851825 19.0116 0.931375 19.0164 1.4066C19.0193 1.69965 19.0459 2.05449 19.0755 2.19515C19.1051 2.33581 19.1325 2.72902 19.1363 3.06895C19.1401 3.40888 19.128 3.77332 19.1095 3.87881C19.0901 3.98883 19.0971 4.12061 19.1258 4.18784C19.1534 4.25231 19.2075 4.30506 19.246 4.30506C19.2845 4.30506 19.3328 4.28108 19.3533 4.25178C19.3739 4.22247 19.4045 3.96833 19.4214 3.68701C19.4437 3.31559 19.4334 3.0938 19.3835 2.87714C19.3441 2.70566 19.3279 2.50104 19.3454 2.39599C19.3621 2.29546 19.4063 2.14831 19.4434 2.06899C19.4851 1.98016 19.5174 1.72302 19.5277 1.39929C19.5392 1.03805 19.5686 0.823862 19.6218 0.71403C19.6643 0.626157 19.7988 0.429552 19.9208 0.27713C20.0427 0.124708 20.1627 0 20.1874 0C20.2141 0 20.2185 0.0909416 20.1982 0.223778C20.1794 0.346856 20.1649 0.505099 20.1658 0.575429C20.1667 0.645759 20.1953 0.827978 20.2292 0.98036C20.2631 1.13274 20.3147 1.2711 20.3439 1.28783C20.3793 1.3081 20.3981 1.56649 20.4004 2.06286C20.403 2.6193 20.42 2.8249 20.468 2.87638C20.5078 2.91919 20.5331 3.06153 20.5349 3.25221C20.5363 3.42102 20.519 3.70728 20.4963 3.88834C20.465 4.13659 20.4697 4.23355 20.5154 4.28261C20.5487 4.3184 20.5895 4.34739 20.606 4.34703C20.6224 4.3467 20.6682 4.32818 20.7076 4.30593C20.765 4.27357 20.7815 4.14377 20.7903 3.65656C20.7964 3.32166 20.7997 2.83276 20.7978 2.57012C20.796 2.30749 20.818 2.02866 20.8469 1.95052C20.8758 1.87238 20.903 1.73241 20.9073 1.63949C20.9116 1.54657 20.8983 1.36489 20.8778 1.23577C20.8448 1.02791 20.8562 0.970499 20.9768 0.734933C21.0517 0.588598 21.1372 0.468868 21.1667 0.468868C21.1962 0.468868 21.2334 0.553649 21.2493 0.65727C21.2652 0.760891 21.3488 0.976676 21.435 1.13679C21.5212 1.29691 21.6056 1.43751 21.6226 1.44923C21.6395 1.46095 21.6482 1.68153 21.642 1.93941C21.6318 2.35582 21.6428 2.43046 21.7411 2.60661C21.8095 2.72947 21.8721 2.95589 21.9056 3.20157C21.9433 3.47758 21.9982 3.66352 22.0864 3.81309C22.1919 3.9921 22.2119 4.07818 22.2059 4.32838C22.2008 4.54127 22.1654 4.69645 22.0843 4.86118C22.0213 4.98902 21.9303 5.15137 21.882 5.22196C21.8338 5.29255 21.6627 5.44384 21.5019 5.55814C21.341 5.67245 21.1503 5.7844 21.078 5.80692C21.0057 5.82945 20.9466 5.86304 20.9466 5.88158C20.9466 5.90013 20.8714 5.92788 20.7794 5.94326C20.6597 5.9633 20.5916 6.00695 20.5393 6.09719C20.4991 6.16647 20.4453 6.22315 20.4197 6.22315C20.3941 6.22315 20.3731 6.24878 20.3731 6.2801C20.3731 6.31624 20.4386 6.33963 20.5523 6.34411C20.6509 6.34799 20.8391 6.36887 20.9705 6.39052C21.1019 6.41216 21.3062 6.4518 21.4245 6.4786C21.5428 6.50541 21.6746 6.5439 21.7173 6.56414C21.7601 6.58438 21.873 6.61398 21.9682 6.62991C22.0635 6.64585 22.1414 6.67441 22.1414 6.69338C22.1414 6.71235 22.2113 6.7414 22.2967 6.75793C22.3821 6.77445 22.4628 6.79995 22.4759 6.81459C22.4891 6.82923 22.6665 6.91663 22.8702 7.00881C23.0739 7.10099 23.2406 7.19081 23.2406 7.2084C23.2406 7.226 23.289 7.25404 23.3481 7.27072C23.4073 7.2874 23.6169 7.41769 23.8141 7.56025C24.0112 7.70281 24.237 7.87807 24.3159 7.94971C24.3948 8.02136 24.5893 8.21364 24.7482 8.37701C24.9071 8.54039 25.1001 8.75791 25.1769 8.8604C25.2538 8.96289 25.3603 9.06201 25.4137 9.08065C25.467 9.0993 25.7903 9.20498 26.132 9.31551C26.4737 9.42603 26.889 9.57141 27.0549 9.63857C27.2209 9.70574 27.4091 9.77242 27.4731 9.78676C27.5372 9.80111 27.5896 9.82786 27.5896 9.84622C27.5896 9.86458 27.6485 9.89279 27.7206 9.90892C27.7926 9.92504 27.8625 9.95158 27.8759 9.96789C27.8893 9.98422 28.0723 10.0731 28.2826 10.1655C28.4929 10.2578 28.6933 10.358 28.7281 10.3882C28.7628 10.4183 28.8114 10.443 28.836 10.443C28.8607 10.443 28.9699 10.5005 29.0787 10.5708C29.1876 10.6412 29.3057 10.6987 29.3412 10.6987C29.3767 10.6987 29.4057 10.7166 29.4057 10.7385C29.4057 10.7603 29.4541 10.7917 29.5132 10.8081C29.5724 10.8246 29.6315 10.8501 29.6447 10.8648C29.6578 10.8794 29.8406 10.9952 30.0509 11.122C30.2612 11.2488 30.6375 11.4943 30.8872 11.6675C31.1369 11.8407 31.4981 12.1011 31.6899 12.2463C31.8816 12.3915 32.2365 12.6831 32.4784 12.8944C32.7204 13.1057 33.0556 13.4126 33.2233 13.5764C33.391 13.7402 33.648 14.0037 33.7944 14.1619C33.9408 14.3202 34.0777 14.4496 34.0988 14.4496C34.1198 14.4496 34.1371 14.4704 34.1371 14.4958C34.1371 14.5211 34.2177 14.6314 34.3163 14.7408C34.4148 14.8502 34.521 14.9638 34.5521 14.9933C34.5832 15.0228 34.6223 15.0851 34.639 15.1319C34.6556 15.1786 34.6893 15.2169 34.7138 15.2169C34.7383 15.2169 34.7583 15.2463 34.7583 15.2822C34.7583 15.3181 34.7906 15.3585 34.83 15.372C34.8695 15.3855 34.9017 15.4219 34.9017 15.4528C34.9017 15.4838 34.9327 15.5368 34.9706 15.5706C35.0085 15.6044 35.1517 15.8024 35.289 16.0105C35.4262 16.2187 35.5511 16.3986 35.5666 16.4104C35.582 16.4221 35.6485 16.5276 35.7142 16.6448C35.7799 16.762 35.8451 16.8675 35.8592 16.8792C35.8732 16.891 36.0053 17.1211 36.1528 17.3907C36.3003 17.6603 36.474 17.9864 36.5388 18.1153C36.6036 18.2443 36.6721 18.3977 36.691 18.4563C36.7099 18.5149 36.7574 18.63 36.7965 18.7121C36.8356 18.7941 36.8863 18.8996 36.9091 18.9465C36.9319 18.9934 37.0304 19.2619 37.1279 19.5433C37.2254 19.8246 37.3217 20.0931 37.3419 20.14C37.3622 20.1869 37.4037 20.3116 37.4342 20.4171C37.4646 20.5226 37.4955 20.6376 37.5028 20.6728C37.5101 20.708 37.5315 20.8135 37.5505 20.9072C37.5694 21.001 37.603 21.1161 37.6252 21.163C37.6473 21.2099 37.7031 21.4592 37.7491 21.7171C37.7952 21.975 37.8419 22.3058 37.8529 22.4524C37.8639 22.5989 37.8904 22.7188 37.9116 22.7188C37.9329 22.7188 37.9575 22.877 37.9662 23.0704C37.9749 23.2638 37.9815 23.9783 37.9809 24.6582C37.9803 25.338 37.9657 26.0094 37.9484 26.15C37.931 26.2907 37.8962 26.5305 37.871 26.6828C37.8457 26.8352 37.7895 27.1517 37.7461 27.3861C37.7026 27.6206 37.6616 27.8411 37.655 27.8763C37.6484 27.9115 37.6307 27.969 37.6158 28.0042C37.6008 28.0394 37.5508 28.225 37.5046 28.4168C37.4584 28.6085 37.4052 28.7877 37.3863 28.8149C37.3634 28.848 37.2247 28.7823 36.9655 28.6154C36.7529 28.4785 36.4543 28.2967 36.3019 28.2114C36.1495 28.1261 35.8958 27.9948 35.7381 27.9196C35.5804 27.8445 35.3565 27.7368 35.2407 27.6804C35.1248 27.6241 35.0126 27.5779 34.9912 27.5779C34.9698 27.5779 34.828 27.5277 34.6761 27.4662C34.5242 27.4048 34.3784 27.3458 34.3521 27.3352C34.3258 27.3246 34.3474 27.348 34.3999 27.3873C34.4525 27.4266 34.646 27.5244 34.83 27.6045C35.014 27.6847 35.1108 27.7376 35.0451 27.7222C34.9794 27.7067 34.8934 27.6856 34.8539 27.6751C34.8127 27.6641 34.827 27.6915 34.8877 27.7396C34.9458 27.7855 34.9816 27.8334 34.9675 27.8461C34.9533 27.8587 34.8689 27.8419 34.7799 27.8088C34.6909 27.7756 34.604 27.7484 34.5868 27.7484C34.5696 27.7484 34.5836 27.7787 34.618 27.8156C34.6698 27.8713 34.6688 27.8896 34.6119 27.9222C34.5544 27.9552 34.5539 27.9677 34.6084 27.999C34.6634 28.0307 34.6634 28.0406 34.6084 28.063C34.558 28.0835 34.5568 28.095 34.603 28.1143C34.6359 28.128 34.6628 28.1663 34.6628 28.1996C34.6628 28.2328 34.6234 28.2599 34.5752 28.2599C34.527 28.2599 34.4734 28.2726 34.4561 28.288C34.4388 28.3034 34.4486 28.3418 34.4779 28.3732C34.515 28.4131 34.5155 28.4304 34.4798 28.4304C34.4514 28.4304 34.4142 28.4974 34.397 28.5792C34.3798 28.6611 34.3462 28.7173 34.3223 28.7042C34.2985 28.691 34.2915 28.6623 34.3067 28.6403C34.3219 28.6183 34.2986 28.5881 34.2549 28.5731C34.2095 28.5576 34.1572 28.5714 34.1331 28.6054C34.1099 28.6381 34.0905 28.7093 34.0901 28.7636C34.0895 28.8431 34.1081 28.8571 34.185 28.8354C34.2482 28.8175 34.2794 28.8273 34.2772 28.8645C34.2753 28.8953 34.2592 28.9494 34.2414 28.9846C34.2235 29.0197 34.1715 29.0511 34.1258 29.0543C34.08 29.0575 34.0535 29.0445 34.0668 29.0253C34.0801 29.0061 34.0691 28.9784 34.0424 28.9637C34.0157 28.9489 33.9915 28.9716 33.9887 29.014C33.9858 29.0564 33.9829 29.1422 33.9821 29.2047C33.9813 29.2828 33.9603 29.3114 33.9156 29.2961C33.8798 29.2838 33.8472 29.2998 33.8432 29.3316C33.8392 29.3635 33.8309 29.4087 33.8248 29.4321C33.8187 29.4555 33.8112 29.5394 33.8082 29.6185C33.8035 29.7407 33.792 29.7543 33.7315 29.7095C33.6923 29.6806 33.6721 29.6399 33.6865 29.6191C33.7009 29.5983 33.6792 29.5813 33.6382 29.5813C33.5913 29.5813 33.5637 29.6194 33.5637 29.6843C33.5637 29.741 33.5906 29.797 33.6234 29.8088C33.6712 29.826 33.6712 29.831 33.6234 29.8337C33.5906 29.8355 33.5637 29.8573 33.5637 29.8822C33.5637 29.907 33.583 29.9167 33.6065 29.9037C33.63 29.8908 33.6616 29.9088 33.6767 29.9438C33.6953 29.9871 33.6738 30.0075 33.61 30.0075C33.5582 30.0075 33.5159 30.0267 33.5159 30.0502C33.5159 30.0736 33.4857 30.0928 33.4487 30.0928C33.4044 30.0928 33.3902 30.1227 33.4072 30.1805C33.4259 30.2444 33.4062 30.2746 33.3344 30.2913C33.2801 30.304 33.2242 30.3412 33.2101 30.374C33.1923 30.4153 33.2208 30.4338 33.3023 30.4338C33.3672 30.4338 33.4203 30.4536 33.4203 30.4777C33.4203 30.5019 33.3878 30.5328 33.348 30.5464C33.3083 30.5601 33.2437 30.5476 33.2046 30.5186C33.144 30.4737 33.1336 30.4883 33.1336 30.6179C33.1336 30.7014 33.1121 30.7816 33.0858 30.7961C33.0595 30.8106 33.038 30.7818 33.038 30.7321C33.038 30.6825 33.018 30.6529 32.9935 30.6664C32.969 30.6799 32.9593 30.7416 32.9719 30.8036C32.9854 30.8697 32.9693 30.9304 32.9332 30.9504C32.8841 30.9774 32.8836 30.9951 32.9309 31.0373C32.9635 31.0664 32.9902 31.113 32.9902 31.1409C32.9902 31.1687 32.9526 31.1889 32.9066 31.1856C32.8606 31.1824 32.8283 31.2037 32.8349 31.233C32.8414 31.2623 32.8204 31.2815 32.7882 31.2756C32.756 31.2697 32.7222 31.3081 32.7132 31.3609C32.7042 31.4136 32.666 31.4568 32.6284 31.4568C32.5908 31.4568 32.5601 31.4759 32.5601 31.4994C32.5601 31.5228 32.6121 31.542 32.6756 31.542C32.7391 31.542 32.8001 31.566 32.8112 31.5953C32.8223 31.6246 32.7575 31.6886 32.6671 31.7375C32.5767 31.7863 32.5054 31.8395 32.5085 31.8555C32.5117 31.8716 32.4872 31.9106 32.454 31.9423C32.4033 31.9906 32.3639 31.9905 32.208 31.9415C32.1059 31.9094 32.0089 31.8839 31.9925 31.8848C31.9761 31.8857 32.038 31.9204 32.13 31.9618C32.222 32.0033 32.6306 32.1976 33.038 32.3936C33.4454 32.5896 33.8648 32.8015 33.9699 32.8643C34.0751 32.9272 34.1826 32.9864 34.2089 32.9958C34.2352 33.0052 34.4341 33.1155 34.651 33.2408C34.8678 33.3662 35.0452 33.4757 35.0452 33.4842C35.0452 33.4926 34.9138 33.6671 34.7532 33.8719C34.5925 34.0767 34.3936 34.3217 34.3111 34.4163C34.2286 34.511 33.9539 34.8093 33.7007 35.0793C33.4475 35.3492 33.1713 35.6277 33.0869 35.698C33.0026 35.7683 32.8666 35.9026 32.7847 35.9963C32.7028 36.0901 32.6796 36.1333 32.7332 36.0923C32.7867 36.0512 32.8509 36.0177 32.8758 36.0177C32.9008 36.0177 33.0981 36.1759 33.3142 36.3693C33.5304 36.5627 33.7922 36.8223 33.8959 36.9461C33.9997 37.07 34.1699 37.3301 34.2743 37.5242C34.3787 37.7183 34.4796 37.9526 34.4987 38.045C34.5177 38.1373 34.552 38.2237 34.5748 38.237C34.5976 38.2502 34.5922 38.3226 34.5629 38.3977C34.5335 38.4728 34.4701 38.5531 34.4221 38.576C34.374 38.599 34.2848 38.6168 34.224 38.6155C34.1631 38.6143 33.995 38.5707 33.8504 38.5186L33.8502 38.5185ZM21.066 18.1786C21.3026 18.141 21.6682 18.0714 21.8785 18.0239C22.0887 17.9765 22.4543 17.8713 22.6909 17.7902C22.9275 17.7091 23.2501 17.5838 23.4078 17.5117C23.5655 17.4397 23.8236 17.3126 23.9813 17.2293C24.139 17.1459 24.4373 16.9638 24.6443 16.8245C24.8512 16.6852 25.1853 16.4247 25.3869 16.2457C25.5884 16.0666 25.8373 15.8243 25.9401 15.7071C26.0429 15.5898 26.1504 15.4748 26.1791 15.4513C26.2077 15.4279 26.3299 15.2744 26.4507 15.1103C26.5714 14.9462 26.7354 14.7021 26.8151 14.5678C26.8948 14.4335 27.0264 14.177 27.1075 13.9978C27.1886 13.8185 27.255 13.6649 27.255 13.6564C27.255 13.6478 27.1744 13.5955 27.0758 13.5401C26.9772 13.4848 26.7535 13.3694 26.5787 13.2839C26.4039 13.1983 26.2514 13.1283 26.2398 13.1283C26.2283 13.1283 26.1924 13.2386 26.1602 13.3734C26.128 13.5082 26.069 13.7144 26.0292 13.8316C25.9893 13.9488 25.8682 14.2365 25.7601 14.4709C25.6519 14.7054 25.5246 14.9481 25.4773 15.0103C25.4299 15.0726 25.3911 15.1353 25.3911 15.1498C25.3911 15.1642 25.3327 15.2572 25.2613 15.3563C25.1899 15.4554 25.0234 15.6516 24.8914 15.7923C24.7594 15.933 24.4871 16.1874 24.2863 16.3578C24.0855 16.5281 23.8272 16.7313 23.7123 16.8093C23.5974 16.8873 23.3098 17.055 23.0732 17.1819C22.8367 17.3089 22.4388 17.4833 22.1891 17.5694C21.9394 17.6556 21.6168 17.7553 21.4722 17.7909C21.3277 17.8265 21.0184 17.8853 20.7849 17.9215C20.5428 17.9591 20.0825 17.9875 19.7134 17.9875C19.3293 17.9875 18.8995 17.9601 18.6563 17.9202C18.4308 17.8833 18.128 17.8242 17.9834 17.7891C17.8389 17.7539 17.5701 17.6757 17.3861 17.6154C17.2021 17.5551 16.8902 17.4293 16.6931 17.3358C16.4959 17.2423 16.1518 17.0542 15.9284 16.9178C15.705 16.7814 15.3028 16.476 15.0347 16.2391C14.7666 16.0022 14.4525 15.6801 14.3368 15.5233C14.2211 15.3665 14.0598 15.1327 13.9784 15.0037C13.8971 14.8748 13.7426 14.5712 13.6351 14.329C13.5276 14.0868 13.3955 13.7224 13.3415 13.5191C13.2875 13.3159 13.237 13.1438 13.2294 13.1368C13.2217 13.1298 13.0678 13.195 12.8873 13.2818C12.7068 13.3686 12.4767 13.4859 12.376 13.5424C12.2408 13.6183 12.2014 13.6641 12.2255 13.7171C12.2435 13.7566 12.2812 13.8465 12.3093 13.9168C12.3374 13.9872 12.4759 14.2502 12.617 14.5014C12.7582 14.7526 13.0084 15.1193 13.173 15.3162C13.3376 15.5131 13.5787 15.7749 13.7087 15.8979C13.8387 16.0209 14.0849 16.2427 14.2557 16.3907C14.4266 16.5387 14.6638 16.7261 14.7829 16.807C14.9019 16.8879 15.1493 17.0398 15.3325 17.1445C15.5157 17.2492 15.7946 17.3941 15.9523 17.4664C16.11 17.5388 16.3387 17.6371 16.4606 17.685C16.5824 17.7328 16.8512 17.8216 17.0579 17.8823C17.2647 17.9429 17.6166 18.0316 17.8401 18.0794C18.0635 18.1272 18.4614 18.1924 18.7242 18.2243C19.0247 18.2608 19.4682 18.2757 19.919 18.2647C20.3133 18.2549 20.8294 18.2162 21.066 18.1786ZM2.6827 37.989C2.6786 37.9714 2.66888 37.909 2.66111 37.8504C2.65335 37.7918 2.62684 37.6575 2.6022 37.552C2.57757 37.4465 2.52179 37.2547 2.47826 37.1258C2.43473 36.9968 2.38084 36.853 2.35853 36.8061C2.3362 36.7592 2.28058 36.6249 2.23492 36.5077C2.18925 36.3905 2.13321 36.2764 2.11038 36.2541C2.08755 36.2318 2.06888 36.1863 2.06888 36.153C2.06888 36.1196 1.94777 35.8794 1.79976 35.6192C1.65175 35.359 1.44397 35.0257 1.33803 34.8785C1.2321 34.7314 1.12611 34.6109 1.10252 34.6109C1.07892 34.6109 1.0714 34.5939 1.08581 34.5732C1.10022 34.5524 1.07997 34.5117 1.04084 34.4827C1.0017 34.4537 0.969676 34.4119 0.969676 34.3897C0.969676 34.3676 0.899781 34.2719 0.814354 34.177C0.728925 34.0822 0.589136 33.9325 0.503708 33.8444C0.418281 33.7563 0.348607 33.6673 0.348878 33.6467C0.34923 33.6261 0.548079 33.4974 0.790948 33.3606C1.03382 33.2239 1.38083 33.0158 1.56209 32.8981C1.74335 32.7805 1.87828 32.7153 1.86193 32.7533C1.84455 32.7937 1.87399 32.8653 1.93274 32.9255C1.98803 32.9823 2.06122 33.073 2.09538 33.1272C2.12954 33.1813 2.19486 33.2928 2.24054 33.3748C2.28621 33.4569 2.35962 33.5624 2.40366 33.6093C2.4477 33.6562 2.65922 33.9639 2.8737 34.2932C3.08818 34.6225 3.26367 34.9182 3.26367 34.9504C3.26367 34.9825 3.27947 34.9947 3.29879 34.9775C3.31811 34.9602 3.33861 34.8427 3.34434 34.7163C3.35009 34.59 3.39057 34.4234 3.43434 34.3463C3.4781 34.2691 3.56513 34.145 3.62772 34.0704C3.69032 33.9957 3.839 33.8635 3.95812 33.7764L4.17469 33.6181L4.42411 33.8523C4.56128 33.9811 4.7719 34.1805 4.89214 34.2954C5.01237 34.4104 5.20817 34.6195 5.32724 34.7601C5.44631 34.9008 5.58988 35.1269 5.64628 35.2626C5.70268 35.3982 5.74851 35.5517 5.74813 35.6036C5.74778 35.6554 5.7141 35.7842 5.67337 35.8897C5.63263 35.9952 5.55229 36.1438 5.49484 36.22C5.43739 36.2961 5.26135 36.4625 5.10364 36.5896C4.94593 36.7168 4.70936 36.889 4.57793 36.9724C4.44651 37.0557 4.13467 37.2456 3.88496 37.3943C3.63525 37.543 3.26427 37.7449 3.06055 37.8429C2.85684 37.9409 2.6868 38.0066 2.6827 37.989ZM36.6221 37.9341C36.5564 37.8889 36.4711 37.8622 36.4324 37.8747C36.3938 37.8873 36.377 37.8843 36.3951 37.8681C36.4133 37.852 36.244 37.7446 36.019 37.6295C35.794 37.5145 35.585 37.402 35.5545 37.3796C35.524 37.3571 35.37 37.257 35.2123 37.157C35.0546 37.057 34.8631 36.9396 34.7868 36.8961C34.7105 36.8526 34.481 36.6691 34.2768 36.4884C33.9598 36.208 33.8937 36.1239 33.8255 35.9146C33.775 35.7599 33.7571 35.6117 33.7769 35.5131C33.7941 35.4272 33.8328 35.2897 33.8629 35.2077C33.8931 35.1256 34.0314 34.9242 34.1704 34.7601C34.3094 34.596 34.6248 34.2731 34.8713 34.0425L35.3195 33.6232L35.6311 33.8833C35.8026 34.0263 35.9812 34.215 36.0282 34.3025C36.0751 34.3901 36.1263 34.5864 36.1418 34.7388L36.17 35.0159L36.2883 34.7921C36.3533 34.669 36.4228 34.5683 36.4426 34.5683C36.4625 34.5683 36.4788 34.5495 36.4788 34.5265C36.4788 34.5035 36.554 34.3798 36.646 34.2515C36.738 34.1232 36.8133 34.0076 36.8133 33.9945C36.8133 33.9814 36.8886 33.8752 36.9806 33.7585C37.0726 33.6417 37.1478 33.5282 37.1478 33.5062C37.1478 33.4842 37.1811 33.4365 37.2217 33.4003C37.2624 33.364 37.3225 33.2907 37.3554 33.2374C37.3883 33.184 37.4771 33.0515 37.5527 32.9428L37.6901 32.7453L37.9327 32.8956C38.0662 32.9782 38.2829 33.1148 38.4143 33.199C38.5457 33.2832 38.6604 33.3668 38.6692 33.3848C38.678 33.4027 38.7141 33.4175 38.7494 33.4175C38.7848 33.4175 38.847 33.4471 38.8876 33.4834C38.9283 33.5196 39.0142 33.5736 39.0786 33.6034L39.1956 33.6576L39.0669 33.7826C38.996 33.8514 38.8605 33.994 38.7657 34.0994C38.6709 34.2049 38.4779 34.4447 38.3368 34.6323C38.1958 34.8198 38.0214 35.0692 37.9493 35.1864C37.8771 35.3036 37.7211 35.5756 37.6025 35.7909C37.4838 36.0062 37.3868 36.2086 37.3868 36.2406C37.3868 36.2726 37.3675 36.3171 37.3439 36.3394C37.3203 36.3616 37.2257 36.5908 37.1337 36.8487C37.0417 37.1066 36.9288 37.4614 36.8829 37.6373C36.837 37.8131 36.7864 37.9703 36.7705 37.9866C36.7546 38.0029 36.6879 37.9793 36.6221 37.9341ZM12.0693 30.2619C12.0101 30.2407 11.9616 30.218 11.9616 30.2114C11.9615 30.2047 11.8953 30.0555 11.8145 29.8796C11.7337 29.7038 11.5734 29.3106 11.4583 29.0058C11.3432 28.7011 11.1944 28.2695 11.1276 28.0468C11.0608 27.8241 11.0061 27.6275 11.006 27.6099C11.006 27.5923 11.0825 27.5779 11.1761 27.5779C11.2698 27.5779 11.4579 27.5473 11.5943 27.5099C11.7307 27.4725 11.9233 27.4149 12.0224 27.382C12.1215 27.3491 12.2796 27.3222 12.3736 27.3222C12.4677 27.3222 12.6136 27.293 12.6979 27.2573C12.7822 27.2216 13.0401 27.0363 13.271 26.8454C13.5978 26.5752 13.7002 26.5117 13.7335 26.5586C13.7571 26.5918 13.7767 26.7395 13.7771 26.887C13.7776 27.0708 13.8081 27.2081 13.8744 27.3239C13.9275 27.4167 13.9881 27.4927 14.0091 27.4927C14.0302 27.4927 14.3147 27.3552 14.6414 27.1871C14.9681 27.0191 15.3479 26.8321 15.4854 26.7716C15.6228 26.711 15.7294 26.6447 15.7223 26.6242C15.7152 26.6036 15.5812 26.5451 15.4246 26.4941C15.268 26.4431 14.9248 26.2693 14.6619 26.1078C14.3991 25.9464 14.1001 25.7604 13.9976 25.6945C13.8951 25.6285 13.7675 25.5746 13.7141 25.5746C13.6607 25.5746 13.4526 25.6142 13.2516 25.6625C13.0295 25.716 12.8348 25.793 12.7552 25.8587L12.6243 25.967L12.4166 25.8687L12.2088 25.7704L12.0304 25.8536C11.9324 25.8994 11.7583 26.0184 11.6438 26.118C11.4559 26.2814 11.4132 26.2989 11.2087 26.2958C11.084 26.2939 10.8852 26.2693 10.7669 26.2412C10.578 26.1962 10.4997 26.2023 10.1217 26.2916C9.88518 26.3474 9.64534 26.4026 9.58877 26.4143C9.52384 26.4276 9.44895 26.4024 9.38565 26.346C9.33051 26.2968 9.28539 26.2368 9.28539 26.2127C9.28539 26.1856 9.43618 26.1714 9.67967 26.1757C9.97286 26.1808 10.145 26.1599 10.3512 26.0942C10.6274 26.0061 10.6294 26.0061 10.853 26.0885C10.9765 26.1341 11.1127 26.1893 11.1556 26.2112C11.2158 26.2419 11.3353 26.1831 11.6757 25.9555C11.9963 25.741 12.1576 25.6598 12.2629 25.6598C12.3428 25.6598 12.4457 25.6901 12.4915 25.7271C12.5682 25.789 12.6096 25.7783 13.0119 25.5919C13.3299 25.4445 13.52 25.3841 13.7099 25.3701C13.9689 25.3509 13.973 25.3525 14.2447 25.5744C14.3953 25.6974 14.6046 25.8711 14.7097 25.9603C14.8149 26.0496 15.0192 26.1628 15.1637 26.2121C15.3083 26.2613 15.4696 26.3193 15.5222 26.3411C15.5748 26.3628 15.7003 26.41 15.8012 26.4459C15.9021 26.4818 16.1817 26.5221 16.4225 26.5354L16.8603 26.5597L17.3383 26.1508C17.6011 25.9259 17.8964 25.6947 17.9944 25.6369C18.1297 25.5573 18.2363 25.532 18.4363 25.532C18.6772 25.532 18.7298 25.513 19.0451 25.3124C19.2348 25.1916 19.4841 25.0557 19.599 25.0104C19.7495 24.951 19.8779 24.9333 20.0587 24.9469C20.2499 24.9613 20.3967 25.0129 20.6751 25.1636C20.876 25.2724 21.0553 25.3615 21.0734 25.3615C21.0915 25.3615 21.1402 25.3874 21.1817 25.419C21.2232 25.4507 21.4722 25.5214 21.7351 25.5762C22.1144 25.6552 22.372 25.7488 22.984 26.0301L23.755 26.3845H24.5157C24.9341 26.3845 25.2969 26.3677 25.3218 26.3473C25.3468 26.3269 25.6146 26.1943 25.9168 26.0527C26.2191 25.9112 26.5473 25.7819 26.646 25.7654C26.8046 25.739 26.8633 25.7569 27.1478 25.9182C27.3251 26.0188 27.5776 26.1616 27.709 26.2357C27.8405 26.3098 27.9785 26.3864 28.0159 26.4058C28.0532 26.4252 28.3435 26.437 28.661 26.4321C28.9786 26.4272 29.3889 26.4026 29.5729 26.3776C29.7569 26.3525 29.9397 26.3294 29.9791 26.3263C30.0185 26.3231 30.0616 26.3382 30.0747 26.3598C30.0878 26.3814 29.9709 26.4249 29.8148 26.4565C29.6587 26.4881 29.4423 26.5582 29.3337 26.6123C29.1565 26.7007 29.0783 26.7102 28.5661 26.7062C28.0275 26.7019 27.9825 26.6948 27.7568 26.5776C27.6254 26.5094 27.3423 26.3505 27.1277 26.2245L26.7375 25.9954L26.5542 26.0775C26.4534 26.1227 26.2628 26.1912 26.1307 26.2297C25.9986 26.2682 25.7887 26.3748 25.6642 26.4665C25.5195 26.5731 25.3475 26.6527 25.1875 26.687C25.0498 26.7165 24.7106 26.742 24.4338 26.7437C23.9354 26.7467 23.9283 26.7482 23.6931 26.8989C23.5624 26.9825 23.2467 27.1695 22.9913 27.3144C22.5457 27.5674 22.5147 27.5779 22.2186 27.5779H21.91L21.1535 28.2814C20.7374 28.6683 20.3907 29.0013 20.3832 29.0215C20.3756 29.0416 20.4809 29.0323 20.6171 29.0008C20.7534 28.9693 20.9622 28.9015 21.0813 28.8501C21.2003 28.7987 21.4176 28.6707 21.5642 28.5657C21.7107 28.4607 21.9632 28.2626 22.1252 28.1255C22.3915 27.9002 22.4397 27.8763 22.627 27.8765C22.7501 27.8765 22.8982 27.9114 22.9915 27.9621L23.1488 28.0476L23.4217 27.884C23.5717 27.7941 23.9039 27.6308 24.1598 27.5213C24.5079 27.3723 24.681 27.3222 24.8471 27.3222C24.9887 27.3222 25.1276 27.29 25.2302 27.2335C25.3187 27.1847 25.3911 27.1599 25.3911 27.1784C25.3911 27.1969 25.3119 27.2844 25.215 27.3729C25.1182 27.4614 25.0503 27.5439 25.0642 27.5563C25.0781 27.5687 25.1842 27.5489 25.3 27.5123C25.4159 27.4758 25.6181 27.442 25.7496 27.4373L25.9885 27.4287L26.0027 27.6466C26.0152 27.8371 25.9972 27.888 25.8594 28.0515C25.7727 28.1544 25.6466 28.3153 25.5793 28.4091C25.4753 28.5537 25.4637 28.6006 25.5025 28.7181C25.5277 28.7943 25.5721 28.856 25.6012 28.8553C25.6302 28.8546 25.6913 28.8287 25.7368 28.7978C25.7824 28.767 26.0297 28.4947 26.2865 28.1929C26.661 27.7525 26.7848 27.6361 26.9131 27.6037C27.0217 27.5762 27.131 27.4938 27.2537 27.3468C27.3531 27.2278 27.4886 27.0857 27.5548 27.0312C27.6352 26.965 27.7196 26.9367 27.8088 26.946C27.9129 26.9568 27.951 26.9893 27.9809 27.0932C28.0072 27.1843 28.0648 27.2433 28.1629 27.2795C28.2418 27.3087 28.3052 27.3446 28.3038 27.3593C28.3023 27.3741 28.1835 27.4689 28.0397 27.5701C27.896 27.6713 27.7494 27.8152 27.7141 27.8898C27.6787 27.9644 27.6642 28.0398 27.6817 28.0574C27.6993 28.0749 27.7987 28.0631 27.9025 28.031C28.0064 27.9989 28.1613 27.9527 28.2467 27.9282C28.3454 27.8999 28.402 27.8989 28.402 27.9253C28.402 27.9481 28.3676 28.0663 28.3255 28.188C28.2834 28.3096 28.1341 28.716 27.9936 29.0911C27.8532 29.4662 27.6854 29.8882 27.6207 30.0288L27.5032 30.2846L27.2545 30.2976C27.1178 30.3048 26.8619 30.2815 26.686 30.2458C26.5101 30.2101 26.2446 30.1329 26.096 30.0743L25.8258 29.9678L25.5553 30.0745C25.4065 30.1332 25.1352 30.2093 24.9525 30.2436C24.7697 30.2778 24.4796 30.3059 24.3077 30.3059C24.1357 30.3059 23.8666 30.2762 23.7095 30.2399C23.5525 30.2036 23.3078 30.1281 23.1658 30.0721L22.9077 29.9703L22.6316 30.0703C22.4797 30.1253 22.2159 30.203 22.0453 30.2429C21.8132 30.2972 21.6208 30.3099 21.2811 30.2932C20.9568 30.2773 20.7246 30.2379 20.4686 30.1556C20.2715 30.0921 20.0868 30.0235 20.0581 30.003C20.0268 29.9807 19.8893 30.0067 19.7133 30.0682C19.5523 30.1244 19.2704 30.201 19.0869 30.2382C18.9033 30.2754 18.6176 30.3056 18.4519 30.3053C18.2863 30.3049 18.0188 30.2769 17.8576 30.243C17.6963 30.2091 17.4416 30.1329 17.2916 30.0737C17.0814 29.9908 16.9975 29.9763 16.9261 30.0103C16.8752 30.0347 16.6675 30.1033 16.4646 30.1629C16.2617 30.2224 15.9301 30.2816 15.7276 30.2945C15.5161 30.3079 15.2315 30.2956 15.0585 30.2655C14.893 30.2367 14.6011 30.1553 14.4099 30.0846C14.1807 29.9999 14.0423 29.9696 14.0037 29.9958C13.9715 30.0176 13.8418 30.0695 13.7157 30.1111C13.5895 30.1527 13.3637 30.2128 13.2139 30.2448C13.064 30.2767 12.7694 30.3023 12.5591 30.3017C12.3488 30.3011 12.1284 30.2831 12.0693 30.2619ZM12.6728 28.9798C12.7943 28.9546 13.2162 28.8391 13.6105 28.7231C14.2996 28.5205 14.3394 28.5024 14.638 28.2556C14.8089 28.1145 15.067 27.9271 15.2115 27.8391C15.3561 27.7512 15.6481 27.5895 15.8605 27.4797C16.0729 27.3699 16.3739 27.242 16.5296 27.1956C16.6852 27.1491 16.8825 27.1107 16.9679 27.1101C17.0533 27.1096 17.1232 27.115 17.1232 27.1224C17.1232 27.1297 17.0798 27.2159 17.0267 27.3138C16.9736 27.4119 16.8264 27.5641 16.6995 27.6522C16.5727 27.7403 16.1323 28.0329 15.7209 28.3025C15.3095 28.5721 14.9728 28.8084 14.9727 28.8276C14.9726 28.8467 15.021 28.849 15.0801 28.8326C15.1393 28.8163 15.3059 28.7511 15.4505 28.6879C15.5951 28.6246 15.8592 28.5498 16.0374 28.5216C16.2156 28.4935 16.531 28.3966 16.7381 28.3063C16.9453 28.216 17.1919 28.0896 17.2863 28.0255C17.3806 27.9613 17.4577 27.8757 17.4577 27.8352C17.4577 27.7947 17.5407 27.6484 17.642 27.5099C17.7434 27.3715 17.8852 27.2136 17.9572 27.1591C18.0292 27.1045 18.1784 27.0254 18.2888 26.9832C18.3991 26.941 18.553 26.8352 18.6307 26.7481C18.7084 26.6609 18.858 26.5098 18.9632 26.4122C19.0683 26.3147 19.2284 26.1822 19.3189 26.1178C19.4132 26.0508 19.5427 26.0008 19.6222 26.0008C19.7591 26.0008 19.7607 26.0035 19.738 26.2033C19.7253 26.3146 19.6533 26.567 19.578 26.7641L19.4411 27.1224L18.9055 27.5524C18.611 27.7888 18.3879 27.9983 18.4097 28.0178C18.4316 28.0373 18.5651 28.0231 18.7063 27.9863C18.8476 27.9495 19.0815 27.8665 19.226 27.8019C19.3741 27.7358 19.6288 27.5582 19.8094 27.3954L20.1298 27.1063L20.2113 27.2172C20.2882 27.3219 20.288 27.3415 20.208 27.5682C20.1613 27.7002 20.0753 27.8763 20.0168 27.9595C19.9583 28.0427 19.8958 28.1635 19.878 28.2279C19.8601 28.2924 19.853 28.3452 19.8622 28.3452C19.8713 28.3452 20.0486 28.2588 20.2562 28.1533C20.4638 28.0478 20.6495 27.9615 20.669 27.9615C20.6884 27.9615 20.8126 27.834 20.9449 27.6781C21.0772 27.5222 21.1855 27.3599 21.1855 27.3173C21.1855 27.2747 21.1371 27.2175 21.078 27.19C21.0188 27.1626 20.961 27.1327 20.9494 27.1236C20.9378 27.1145 21.032 27.0133 21.1587 26.8986L21.389 26.6901L21.2815 26.5554C21.1764 26.4239 21.1675 26.4214 20.8895 26.4463C20.7331 26.4603 20.5798 26.4761 20.5488 26.4814C20.5178 26.4867 20.5015 26.4622 20.5125 26.4271C20.5236 26.3919 20.5732 26.2576 20.6228 26.1287L20.713 25.8943L21.1643 25.909C21.5911 25.923 21.6156 25.9191 21.6156 25.8375C21.6156 25.7695 21.5597 25.7366 21.3528 25.683C21.2083 25.6455 20.8887 25.5195 20.6426 25.4029C20.327 25.2534 20.1404 25.191 20.0093 25.191C19.9025 25.191 19.7014 25.2434 19.5367 25.3141C19.379 25.3818 19.1425 25.5064 19.0111 25.5911C18.8349 25.7048 18.7239 25.7451 18.5874 25.7451C18.4857 25.7451 18.2968 25.7786 18.1677 25.8195C17.9766 25.88 17.8429 25.9794 17.4511 26.3523L16.9693 26.8107H16.4724H15.9754L15.1275 27.2867C14.6612 27.5486 14.1238 27.8507 13.9334 27.9581C13.7429 28.0655 13.2623 28.3344 12.8653 28.5558C12.2134 28.9192 12.1519 28.9637 12.2304 29.0149C12.2783 29.0461 12.3477 29.0613 12.3847 29.0486C12.4217 29.036 12.5513 29.005 12.6728 28.9798ZM7.54867 26.374C7.53398 26.3211 7.49742 26.0669 7.46741 25.809C7.43521 25.5323 7.42192 24.9558 7.43498 24.4024C7.44716 23.8867 7.49125 23.2345 7.53298 22.9531C7.57471 22.6718 7.6544 22.269 7.71008 22.058C7.76575 21.8471 7.85262 21.5594 7.9031 21.4187C7.95359 21.2781 8.01696 21.1246 8.04393 21.0777C8.0709 21.0308 8.12024 20.8966 8.15357 20.7794C8.19087 20.6482 8.23772 20.5707 8.27542 20.5779C8.30911 20.5844 8.32342 20.5705 8.30723 20.5472C8.29105 20.5238 8.3085 20.461 8.34611 20.4076C8.38368 20.3542 8.42877 20.2375 8.44631 20.1484C8.46385 20.0593 8.50793 19.9762 8.54424 19.9637C8.58056 19.9513 8.59858 19.9139 8.58429 19.8807C8.57 19.8475 8.5821 19.8203 8.6112 19.8203C8.6403 19.8203 8.6641 19.7924 8.6641 19.7584C8.6641 19.7243 8.68787 19.6499 8.71693 19.593C8.75479 19.5189 8.79672 19.4959 8.86495 19.5118C8.949 19.5314 8.9533 19.5243 8.90163 19.4505C8.85226 19.38 8.86274 19.3392 8.96867 19.1895C9.03773 19.092 9.09423 18.9926 9.09423 18.9687C9.09423 18.9448 9.12776 18.9252 9.16874 18.9252C9.20971 18.9252 9.23135 18.908 9.21681 18.887C9.20227 18.8661 9.28165 18.7305 9.39321 18.5858C9.50476 18.4411 9.63837 18.2616 9.69011 18.187C9.74186 18.1124 9.83326 18.0036 9.89323 17.9453C9.9532 17.8869 10.0023 17.8246 10.0023 17.8067C10.0023 17.7889 10.0358 17.7743 10.0768 17.7743C10.1178 17.7743 10.1385 17.7558 10.1228 17.7333C10.1072 17.7107 10.128 17.6579 10.169 17.616C10.21 17.5742 10.2915 17.4905 10.35 17.4302C10.4084 17.3698 10.4939 17.3081 10.5399 17.293C10.5859 17.2779 10.6242 17.2313 10.6249 17.1896C10.6256 17.1478 10.6887 17.059 10.7651 16.9922C10.8415 16.9254 10.9254 16.8825 10.9516 16.897C10.9778 16.9114 11.0148 16.9008 11.0339 16.8733C11.0555 16.8422 11.0477 16.8348 11.0133 16.8538C10.9829 16.8706 10.9581 16.8673 10.9581 16.8465C10.9581 16.8258 11.0089 16.7662 11.071 16.7142C11.1331 16.6622 11.203 16.6227 11.2264 16.6266C11.2497 16.6304 11.3057 16.6313 11.3509 16.6285C11.3961 16.6257 11.4229 16.5995 11.4106 16.5702C11.3982 16.5409 11.4411 16.4594 11.5059 16.389C11.5964 16.2908 11.6241 16.2785 11.6255 16.3358C11.6264 16.3768 11.644 16.4103 11.6645 16.4103C11.6851 16.4103 11.7298 16.5014 11.7639 16.6128C11.7979 16.7242 11.8576 16.8832 11.8965 16.9662C11.9354 17.0493 11.9722 17.1471 11.9782 17.1836C11.9842 17.2201 12.0229 17.2961 12.0641 17.3523C12.1054 17.4086 12.1555 17.5026 12.1755 17.5612C12.1956 17.6198 12.2455 17.7018 12.2864 17.7433C12.3551 17.813 12.3456 17.8329 12.1641 17.9991C12.0559 18.0982 11.9321 18.213 11.889 18.2542C11.8459 18.2955 11.7909 18.3183 11.7667 18.305C11.7425 18.2917 11.7228 18.3186 11.7228 18.3648C11.7228 18.4109 11.6566 18.4984 11.5757 18.5591C11.4948 18.6198 11.4088 18.6694 11.3846 18.6694C11.3603 18.6694 11.3404 18.6982 11.3404 18.7334C11.3404 18.7685 11.3189 18.7973 11.2926 18.7973C11.2664 18.7973 11.2448 18.8368 11.2448 18.8851C11.2448 18.9333 11.2236 18.9611 11.1976 18.9468C11.1716 18.9325 11.161 18.9457 11.1739 18.9762C11.1869 19.0068 11.1329 19.0989 11.054 19.1809C10.9751 19.263 10.9105 19.346 10.9104 19.3655C10.9104 19.385 10.8304 19.5097 10.7327 19.6426C10.6351 19.7755 10.5427 19.8938 10.5275 19.9055C10.5122 19.9173 10.4227 20.0707 10.3286 20.2465C10.2345 20.4224 10.1442 20.601 10.128 20.6435C10.1118 20.686 10.0771 20.709 10.0509 20.6946C10.0242 20.6798 10.015 20.6953 10.0301 20.7304C10.0447 20.7645 10.0122 20.8746 9.95782 20.975C9.90341 21.0755 9.85889 21.1806 9.85889 21.2087C9.85889 21.2368 9.82677 21.3147 9.7875 21.3819C9.74823 21.449 9.71597 21.5364 9.71581 21.576C9.71567 21.6157 9.69708 21.6583 9.67455 21.6707C9.65202 21.6831 9.60607 21.8089 9.57244 21.9503C9.53591 22.1038 9.48643 22.2073 9.44953 22.2073C9.41065 22.2073 9.38969 22.2586 9.39295 22.3458C9.39581 22.422 9.38493 22.5419 9.36879 22.6122C9.35266 22.6825 9.30208 22.951 9.25641 23.2089C9.19931 23.5314 9.17222 23.944 9.16965 24.5303C9.16725 25.0778 9.1899 25.5116 9.23298 25.7429C9.2829 26.011 9.28595 26.1072 9.24492 26.1194C9.2146 26.1284 9.1898 26.1722 9.1898 26.2167C9.1898 26.2659 9.1477 26.3058 9.08227 26.3187C9.02313 26.3302 8.92098 26.3384 8.85526 26.3368C8.78955 26.3351 8.56911 26.348 8.3654 26.3653C8.16169 26.3826 7.99501 26.41 7.99501 26.4263C7.99501 26.4426 7.90059 26.459 7.78518 26.4629C7.60395 26.469 7.57172 26.4569 7.54867 26.374Z" fill="white"/>
</svg>
